<?xml version="1.0" standalone="no"?>
<!DOCTYPE svg PUBLIC "-//W3C//DTD SVG 20010904//EN"
 "http://www.w3.org/TR/2001/REC-SVG-20010904/DTD/svg10.dtd">
<svg version="1.0" xmlns="http://www.w3.org/2000/svg"
 width="999.000000pt" height="684.000000pt" viewBox="0 0 999.000000 684.000000"
 preserveAspectRatio="xMidYMid meet">

<g transform="translate(0.000000,684.000000) scale(0.100000,-0.100000)"
fill="#000000" stroke="none">
<path d="M0 5184 l0 -1656 52 7 c89 12 110 27 192 129 48 61 85 98 102 102 35
9 44 -5 14 -24 -39 -25 -97 -89 -115 -125 -23 -49 -105 -95 -183 -103 l-62 -7
1 -101 c0 -80 2 -96 11 -76 6 15 12 20 15 12 3 -7 -2 -24 -11 -37 -13 -20 -16
-59 -16 -235 l0 -211 53 8 c92 14 206 6 302 -21 50 -14 248 -83 440 -155 372
-138 373 -138 618 -154 20 -1 37 -6 38 -12 0 -18 -94 -25 -197 -15 -94 10
-128 20 -480 151 -451 167 -509 183 -619 176 -44 -3 -97 -10 -117 -17 l-38
-11 0 -70 0 -71 63 53 c34 29 74 66 89 83 14 17 29 28 33 24 6 -6 -53 -66
-148 -150 l-37 -33 2 -1077 3 -1076 68 108 69 107 121 51 c71 30 145 54 177
57 95 11 95 10 145 92 26 43 63 92 81 110 24 22 34 41 34 61 0 16 7 35 15 42
8 7 15 22 15 35 0 14 10 27 28 36 15 8 32 20 38 28 8 10 23 12 56 7 67 -10 91
3 106 58 13 49 23 56 136 93 79 25 94 34 100 59 8 29 69 89 119 115 32 17 49
19 106 13 54 -5 83 -2 146 16 44 13 95 22 113 21 46 -2 191 -83 227 -126 6 -6
29 -24 53 -39 43 -27 44 -27 72 -9 15 10 48 36 72 58 41 39 125 97 177 125 18
9 52 11 119 7 76 -4 103 -2 149 14 70 24 93 13 27 -14 -38 -16 -76 -21 -170
-22 l-121 -2 -62 -42 c-33 -23 -61 -46 -61 -52 0 -13 -61 -171 -71 -185 -5 -6
-17 -48 -28 -94 -23 -94 -21 -100 46 -141 43 -27 52 -72 25 -126 -27 -52 -142
-226 -156 -235 -6 -4 -30 -8 -53 -8 -37 0 -42 -3 -53 -32 -6 -18 -14 -69 -17
-113 -5 -78 -5 -81 18 -92 43 -19 86 -62 92 -90 3 -17 -2 -42 -14 -64 -10 -21
-21 -55 -25 -77 -5 -32 -13 -43 -44 -61 -33 -18 -67 -64 -127 -173 -2 -5 340
-8 760 -8 758 0 765 0 760 20 -3 11 -25 41 -50 67 -25 27 -62 72 -84 102 l-38
53 25 44 c23 38 25 52 21 116 -2 40 -12 93 -21 118 -15 38 -16 52 -6 95 10 42
9 56 -4 87 -18 41 -22 187 -7 216 5 9 11 37 14 62 3 25 9 66 13 92 4 26 2 60
-4 77 -11 30 0 91 16 91 4 0 8 -36 9 -80 1 -45 6 -87 13 -95 6 -7 30 -20 53
-28 39 -13 55 -11 205 16 l164 31 54 -56 c29 -30 73 -68 96 -84 76 -51 133
-96 141 -110 4 -8 17 -14 28 -14 11 0 35 -11 52 -24 18 -13 64 -40 102 -61
100 -54 145 -86 145 -102 0 -10 -9 -7 -32 10 -18 13 -69 44 -113 67 -44 24
-94 54 -111 67 -17 13 -40 23 -52 23 -11 0 -27 8 -34 19 -14 20 -77 69 -146
114 -24 16 -65 51 -90 78 l-47 50 -167 -30 c-152 -29 -168 -30 -194 -16 -40
21 -61 19 -68 -7 -34 -116 -37 -136 -30 -213 3 -43 12 -95 19 -115 10 -29 10
-40 -3 -67 -14 -30 -13 -37 11 -110 22 -67 24 -87 17 -139 -4 -34 -16 -75 -25
-92 -18 -29 -17 -31 5 -63 13 -19 48 -60 77 -91 30 -32 59 -71 64 -88 l11 -30
949 0 948 0 10 38 c6 20 13 55 17 78 l6 40 -144 11 c-187 15 -275 39 -411 116
-89 50 -124 77 -200 156 -73 76 -88 96 -73 99 13 3 46 -23 105 -81 91 -90 227
-182 255 -171 8 3 53 -3 98 -14 46 -12 116 -26 156 -31 39 -6 105 -17 145 -23
l72 -13 -45 -6 -45 -6 46 -1 46 -2 13 112 c15 145 46 250 104 363 55 105 56
82 -15 340 -27 99 -53 196 -59 215 -64 236 -83 284 -125 310 -33 20 -77 78
-89 117 -4 13 1 51 13 91 12 38 21 80 21 94 0 81 -197 246 -297 248 -12 0 -25
5 -29 11 -5 9 4 10 32 5 82 -15 117 -31 172 -79 31 -27 68 -59 82 -71 41 -36
48 -38 79 -21 60 31 86 5 34 -34 -50 -37 -53 -41 -53 -75 0 -18 -7 -53 -15
-76 -8 -23 -15 -53 -15 -67 0 -37 41 -100 81 -122 19 -11 40 -30 47 -43 11
-23 45 -139 55 -188 5 -26 46 -180 70 -265 8 -27 30 -108 48 -180 19 -71 35
-132 36 -134 6 -10 69 43 168 145 107 110 350 327 410 366 17 11 21 17 10 13
-25 -10 -19 -10 -320 20 -137 14 -287 25 -332 25 -97 0 -110 15 -23 25 88 10
245 -1 555 -41 72 -9 137 -16 145 -16 43 0 121 16 129 26 5 6 11 34 13 61 3
28 17 77 31 109 23 50 27 72 27 155 0 81 4 103 24 143 25 50 26 42 -7 193 -19
86 0 168 68 298 8 15 12 34 9 42 -7 17 -34 21 -34 5 0 -5 7 -10 15 -10 8 0 15
-4 15 -10 0 -5 -9 -10 -20 -10 -17 0 -20 7 -20 45 0 38 3 45 20 45 11 0 20 -4
20 -10 0 -5 -7 -10 -15 -10 -22 0 -18 -17 5 -23 16 -4 20 0 20 19 0 19 5 24
26 24 20 0 25 -4 20 -16 -3 -9 -6 -29 -6 -45 0 -42 -18 -36 -23 9 -3 35 -4 35
-5 -9 -1 -26 -16 -79 -36 -125 -46 -107 -51 -145 -30 -235 25 -106 24 -159 -4
-189 -20 -21 -22 -34 -22 -126 0 -91 -3 -108 -30 -167 -16 -36 -33 -91 -36
-121 -7 -61 -5 -59 -112 -81 -72 -15 -205 -126 -508 -426 -252 -249 -255 -255
-284 -483 -11 -87 -17 -162 -14 -167 7 -12 273 -11 494 2 188 11 254 7 247
-14 -4 -14 -217 -25 -546 -30 -117 -2 -206 -7 -208 -13 -1 -5 -7 -37 -11 -71
l-9 -63 494 0 c271 0 493 2 493 5 0 3 -7 35 -16 71 -15 57 -15 76 -4 137 16
91 95 369 118 412 23 45 227 261 273 291 55 34 164 60 185 43 20 -16 11 -21
-86 -44 l-75 -17 -119 -122 c-138 -140 -156 -171 -217 -382 -49 -170 -58 -258
-35 -337 l17 -57 935 0 934 0 9 23 c12 32 12 31 27 89 7 29 22 85 33 123 11
39 25 111 31 160 6 50 18 123 26 164 9 41 13 84 10 97 -3 12 -57 78 -119 145
-88 94 -118 133 -132 173 -45 127 -100 220 -216 362 -84 103 -101 115 -171
130 -220 45 -418 110 -418 138 -1 28 -16 -12 -125 -324 -39 -112 -57 -145
-102 -184 -25 -21 -37 -26 -45 -18 -8 8 -1 22 27 53 41 46 68 101 110 229 15
47 31 94 36 105 12 29 59 157 59 161 0 2 -3 3 -7 2 -5 -1 -39 4 -78 11 -38 6
-81 14 -95 16 -14 3 -72 21 -130 40 -151 51 -307 85 -392 85 -74 0 -158 27
-158 50 0 13 -1 13 49 -10 32 -16 59 -21 114 -19 72 2 255 -35 329 -65 18 -8
47 -17 63 -20 17 -3 47 -9 67 -14 44 -11 48 -8 48 32 0 40 52 248 89 356 49
143 111 345 111 363 0 27 -50 54 -285 152 -139 58 -310 136 -319 146 -18 17
11 9 80 -22 85 -39 110 -49 210 -92 121 -53 215 -95 254 -114 58 -30 73 -21
113 65 44 97 54 131 61 212 3 41 22 114 51 195 50 140 75 278 75 416 l0 77
-63 11 c-80 14 -152 14 -215 0 -60 -12 -196 -16 -277 -7 -152 16 -225 30 -225
44 0 15 5 15 150 -7 41 -6 98 -15 125 -19 28 -4 92 -3 145 4 52 6 154 10 227
9 l132 -2 5 27 c3 15 10 63 17 107 6 44 20 109 30 145 18 65 19 112 3 256 -5
50 -7 53 -62 90 -168 111 -332 244 -332 268 0 6 17 -6 38 -26 42 -40 238 -189
279 -213 52 -29 197 -141 201 -154 3 -8 -17 2 -43 23 -26 20 -52 36 -56 36 -5
0 -6 -14 -2 -32 11 -55 8 -211 -5 -253 -25 -82 -52 -273 -52 -375 -1 -136 -21
-276 -54 -370 -56 -157 -67 -196 -72 -255 -7 -76 -29 -154 -65 -227 -37 -73
-37 -98 -1 -119 15 -9 71 -44 124 -78 65 -41 102 -59 114 -54 13 5 16 3 11 -9
-4 -12 12 -27 61 -57 81 -49 107 -69 100 -76 -2 -3 -52 26 -109 63 -57 38
-153 101 -214 140 l-110 72 -18 -21 c-9 -12 -20 -33 -23 -48 -3 -14 -16 -57
-29 -96 -97 -294 -138 -434 -153 -538 -11 -68 -9 -69 88 -82 30 -4 63 -11 72
-16 14 -7 22 0 44 38 16 27 146 168 295 319 l267 272 27 83 c23 74 25 93 20
178 -4 53 -15 148 -25 211 -11 63 -30 198 -44 300 -59 433 -141 1021 -192
1370 -30 206 -55 394 -55 417 -1 28 23 100 75 232 l76 191 6 175 7 176 -29 -7
c-105 -23 -188 -47 -249 -70 -38 -14 -81 -29 -95 -34 -14 -4 -73 -26 -131 -48
-59 -23 -147 -54 -197 -71 -119 -39 -128 -45 -135 -81 -7 -33 -23 -45 -182
-143 -55 -34 -114 -72 -132 -84 -17 -13 -34 -23 -38 -23 -4 0 -19 -8 -33 -18
-35 -25 -62 -34 -62 -22 0 6 5 10 10 10 6 0 23 8 38 19 46 32 254 163 314 198
31 18 60 42 63 53 8 24 -28 87 -53 93 -21 4 -147 -57 -242 -118 -39 -25 -73
-45 -76 -45 -3 0 -49 -26 -102 -57 -53 -32 -109 -63 -124 -70 -23 -10 -28 -19
-29 -50 l-2 -38 -7 45 c-4 25 -9 151 -10 280 -1 129 -5 286 -8 348 -4 61 -4
112 -1 112 9 0 19 -257 19 -482 0 -233 -5 -226 113 -155 40 24 104 61 142 82
39 21 88 50 110 65 58 39 183 100 206 100 11 0 33 -10 49 -22 l30 -22 47 21
c27 12 89 33 138 48 50 15 140 46 200 70 140 56 268 97 374 120 l84 19 -6 109
c-10 168 -35 197 -285 325 -160 82 -251 115 -294 105 -102 -23 -358 -130 -553
-230 -46 -23 -350 -137 -388 -145 -31 -6 -15 17 21 31 180 67 293 116 447 192
232 114 433 189 509 189 49 0 73 -8 179 -61 198 -99 281 -146 324 -186 53 -50
83 -130 83 -223 0 -86 12 -100 83 -100 89 -1 1108 100 1187 117 145 31 287 76
485 155 110 44 251 100 313 125 63 24 121 42 129 39 9 -4 14 -8 12 -11 -4 -4
-142 -58 -484 -189 -332 -128 -417 -150 -675 -171 -96 -8 -211 -19 -255 -25
-102 -12 -449 -45 -625 -60 -74 -6 -145 -13 -157 -16 -21 -4 -22 -7 -22 -172
l0 -167 -44 -115 c-25 -63 -61 -159 -82 -212 l-37 -97 26 -178 c14 -98 45
-306 67 -463 22 -157 63 -440 90 -630 28 -190 69 -471 91 -625 22 -154 43
-337 45 -407 8 -220 -11 -253 -359 -596 -189 -186 -304 -322 -274 -322 7 0 35
-12 62 -27 30 -17 122 -45 244 -75 l195 -47 53 -58 c72 -78 191 -237 209 -280
7 -19 27 -62 43 -96 17 -33 30 -68 30 -77 0 -9 45 -66 101 -126 55 -60 111
-125 124 -145 16 -25 34 -38 56 -43 18 -3 33 -5 34 -4 10 17 103 138 118 155
18 20 21 20 55 6 20 -8 61 -32 91 -52 68 -45 129 -74 198 -95 l53 -15 15 57
c20 74 61 154 105 207 19 23 40 51 46 61 7 10 15 16 19 12 9 -8 -18 -58 -44
-82 -89 -80 -165 -368 -137 -517 12 -61 11 -77 -10 -180 -13 -63 -23 -133 -24
-156 l0 -43 565 0 565 0 -2 671 -3 671 -95 43 c-52 24 -135 60 -185 81 -49 20
-137 58 -195 84 -94 43 -230 90 -258 90 -5 0 -21 -33 -33 -72 -20 -61 -24 -95
-24 -203 -1 -142 -17 -211 -60 -251 -13 -12 -26 -31 -30 -43 -6 -21 -25 -30
-25 -11 0 6 -4 10 -10 10 -5 0 -10 -13 -10 -30 0 -16 5 -30 11 -30 6 0 9 7 5
15 -3 9 0 15 10 15 25 0 13 -44 -14 -48 -27 -4 -43 29 -32 68 5 19 13 25 33
25 24 -1 32 9 66 80 l40 80 -8 105 c-7 104 4 184 38 273 8 21 8 29 -2 31 -94
27 -590 169 -797 229 -124 36 -265 77 -315 91 -202 58 -280 89 -347 139 -37
28 -36 44 1 18 52 -37 194 -97 296 -125 55 -15 150 -43 210 -61 61 -19 214
-64 340 -100 127 -37 284 -83 350 -102 154 -46 204 -58 210 -51 3 3 17 44 31
92 l26 87 -28 36 c-16 21 -52 62 -81 93 -51 53 -86 95 -243 290 -158 196 -197
240 -351 402 -148 157 -242 271 -415 505 -73 99 -97 142 -184 328 -132 281
-162 340 -193 384 -51 69 -54 80 -14 42 43 -40 87 -124 222 -416 104 -225 165
-323 300 -479 42 -49 84 -105 95 -125 10 -20 40 -59 67 -87 26 -29 105 -112
174 -185 69 -74 190 -213 268 -309 78 -96 162 -197 186 -225 l44 -50 1 38 c0
26 4 37 15 37 12 0 15 -13 15 -57 0 -56 1 -57 70 -134 l71 -78 -27 -91 c-26
-93 -26 -120 0 -120 46 0 348 -116 563 -216 28 -13 54 -24 57 -24 3 0 39 -16
80 -35 41 -19 78 -35 81 -35 3 0 5 1047 5 2328 l0 2327 -21 10 c-12 6 -31 26
-42 46 -20 35 -20 37 -4 63 11 16 27 26 42 26 l25 0 0 340 0 340 -4995 0
-4995 0 0 -1656z m9829 755 c-10 -45 -21 -116 -24 -158 -4 -42 -20 -114 -35
-161 -86 -257 -108 -425 -72 -538 25 -77 110 -233 163 -297 44 -54 47 -71 22
-167 -15 -57 -15 -70 -4 -92 10 -18 12 -55 9 -143 -4 -97 -9 -124 -27 -153
-11 -19 -21 -49 -21 -66 0 -17 -9 -51 -20 -76 -11 -25 -17 -54 -13 -67 3 -12
-1 -48 -10 -79 -8 -31 -21 -76 -27 -99 -9 -35 -15 -43 -33 -43 -13 0 -38 -15
-57 -35 -30 -31 -40 -35 -85 -35 -75 0 -140 -23 -188 -66 -57 -50 -59 -56 -44
-100 12 -34 11 -54 -7 -154 -12 -63 -25 -121 -29 -127 -25 -39 -65 15 -47 63
8 20 16 25 33 22 20 -4 22 0 27 46 7 79 5 148 -4 178 -7 24 -2 32 46 77 61 59
156 96 215 85 30 -6 39 -2 71 29 20 19 46 37 57 39 11 2 23 14 26 28 23 82 32
131 34 176 2 28 9 64 17 80 9 16 18 52 21 79 3 28 12 63 20 78 9 17 15 61 16
113 1 46 4 91 7 99 3 8 -2 27 -12 44 -17 28 -17 33 -1 90 22 77 22 125 0 142
-26 22 -103 147 -144 234 -49 106 -63 171 -56 259 6 74 64 320 97 410 10 28
25 105 34 171 18 141 32 195 50 195 10 0 9 -17 -5 -81z m-5079 -33 c26 -13 79
-47 118 -75 99 -73 157 -95 374 -146 170 -40 227 -59 214 -72 -4 -4 -295 64
-401 94 -66 19 -133 55 -212 114 -126 94 -180 104 -353 65 -175 -40 -263 -53
-401 -60 -106 -4 -140 -10 -213 -36 -276 -98 -315 -140 -335 -365 -7 -71 -16
-152 -21 -180 -5 -27 -14 -102 -20 -165 -7 -63 -21 -146 -32 -185 -21 -73 -78
-164 -138 -220 -18 -16 -48 -46 -69 -65 -20 -19 -65 -60 -100 -90 -109 -95
-132 -167 -124 -392 6 -142 5 -150 -21 -220 -21 -58 -42 -92 -103 -162 -42
-48 -87 -92 -100 -97 -23 -8 -34 -49 -13 -49 6 0 6 -7 -2 -19 -9 -16 -4 -27
35 -79 63 -81 114 -98 318 -106 171 -6 178 -9 366 -122 171 -103 207 -128 281
-191 69 -60 72 -71 46 -148 -16 -45 -16 -49 1 -61 10 -7 38 -16 64 -19 82 -9
127 -24 179 -56 47 -29 56 -31 125 -27 75 3 75 3 130 56 31 28 60 52 65 52 6
0 9 8 7 18 -2 9 -11 59 -21 110 l-17 93 117 233 c64 129 114 239 111 248 -3 8
-71 45 -150 83 -80 37 -142 71 -140 75 3 4 -3 7 -12 6 -9 0 -18 5 -21 13 -3 9
1 11 17 6 19 -6 21 -3 21 35 0 23 -5 50 -11 61 -18 35 -39 5 -39 -57 0 -60
-14 -70 -50 -34 l-20 20 -20 -20 c-25 -25 -81 -26 -103 -2 -8 9 -19 29 -22 45
-9 35 -25 35 -25 -1 0 -40 -33 -67 -80 -67 -40 0 -80 26 -80 52 0 18 35 17 50
-2 7 -8 20 -15 30 -15 20 0 46 27 36 37 -15 15 -96 40 -118 37 -300 -47 -304
-48 -563 -129 -167 -52 -308 -93 -352 -103 -16 -3 -23 0 -23 11 0 10 26 21 88
36 129 32 366 103 441 133 39 15 322 69 372 71 41 2 45 4 41 24 -6 30 39 73
76 73 33 0 82 -34 82 -56 0 -19 -34 -18 -50 1 -16 20 -49 19 -57 0 -8 -23 3
-29 52 -26 25 1 53 -3 64 -8 14 -8 22 -6 36 9 12 13 31 20 56 20 33 0 41 -5
55 -31 8 -17 14 -40 11 -50 -3 -11 -4 -19 -2 -19 2 0 10 -3 19 -6 13 -5 16 3
16 49 l0 55 100 0 c117 1 120 -2 120 -97 0 -58 -1 -61 -25 -61 -24 0 -25 3
-25 58 0 63 -4 74 -26 65 -10 -4 -14 -23 -14 -64 0 -40 -4 -59 -12 -59 -15 -1
56 -37 148 -76 54 -23 65 -24 85 -13 13 7 35 12 49 10 37 -3 135 88 126 117
-9 29 25 62 64 62 17 0 30 4 30 9 0 18 -17 20 -48 9 -39 -15 -51 -5 -27 22 20
22 89 28 100 9 5 -7 14 -4 26 7 10 9 19 12 19 7 0 -6 -7 -13 -15 -17 -11 -4
-15 -22 -15 -76 l0 -70 -64 3 c-64 2 -64 2 -116 -47 -40 -37 -50 -53 -46 -70
3 -13 -3 -36 -16 -56 -69 -112 -248 -469 -248 -494 0 -11 9 -63 19 -115 18
-87 22 -96 66 -141 58 -58 55 -81 -15 -129 -42 -29 -55 -33 -88 -27 -63 10
-72 -11 -34 -82 24 -45 107 -270 149 -404 3 -10 20 -23 39 -30 19 -7 34 -16
34 -20 0 -10 -1 -10 -39 3 -18 6 -38 24 -47 41 -16 31 -97 263 -108 309 -3 15
-22 55 -41 89 -19 34 -35 67 -35 74 0 24 25 36 75 36 37 0 60 6 87 25 55 37
57 60 12 106 -44 46 -63 44 -109 -6 -49 -54 -74 -65 -156 -67 -41 -1 -85 2
-98 6 -15 5 -21 5 -17 -2 3 -6 -4 -37 -16 -69 -31 -84 -30 -141 5 -182 30 -36
37 -99 14 -123 -7 -7 -28 -34 -45 -61 -36 -52 -86 -86 -234 -162 -54 -28 -98
-53 -98 -57 0 -14 79 -9 117 7 19 8 50 15 67 15 36 -1 190 -41 223 -58 12 -7
37 -12 56 -12 19 0 51 -7 70 -15 40 -16 123 -20 131 -6 3 5 -3 20 -14 34 -26
33 -25 63 3 81 40 26 72 29 106 8 39 -24 25 -39 -16 -16 -22 13 -34 14 -56 5
-40 -16 -43 -36 -12 -77 28 -37 87 -69 110 -60 7 2 22 31 33 63 12 34 21 49
21 36 1 -13 6 -23 11 -23 11 0 13 -39 4 -64 -3 -9 -12 -16 -20 -16 -8 0 -23
-5 -33 -12 -14 -9 -29 -8 -67 4 -32 10 -69 14 -106 11 -40 -4 -70 0 -98 11
-22 9 -57 16 -78 16 -21 0 -42 4 -48 9 -12 12 -192 61 -224 61 -14 0 -35 -7
-48 -15 -13 -10 -49 -17 -88 -19 -48 -2 -70 -7 -79 -19 -15 -21 -28 -137 -19
-182 6 -36 12 -39 129 -86 33 -13 62 -28 64 -32 2 -5 14 -20 27 -35 l23 -27 1
36 c0 32 3 36 23 34 41 -5 102 -36 137 -70 21 -20 77 -52 138 -78 57 -25 116
-57 131 -71 16 -15 70 -45 122 -68 l94 -41 70 13 c82 16 112 17 183 6 l52 -9
0 32 c0 47 44 87 105 97 31 4 58 16 72 30 27 28 33 29 33 11 0 -24 -33 -45
-93 -60 -73 -19 -93 -37 -100 -88 -3 -22 -7 -42 -9 -44 -2 -2 -35 3 -75 10
-60 12 -80 12 -130 0 -82 -20 -113 -18 -174 8 -30 13 -72 32 -94 41 -22 9 -57
33 -79 51 -21 19 -42 35 -47 35 -30 0 -181 80 -221 117 -26 24 -53 43 -60 43
-7 0 -23 3 -35 6 -20 5 -23 2 -23 -21 0 -14 -6 -33 -14 -40 -14 -15 -26 -7
-77 53 -9 11 -49 32 -90 47 -41 15 -90 35 -109 43 -35 15 -75 11 -182 -18 -41
-12 -98 -55 -98 -74 0 -6 -15 -28 -34 -48 -45 -48 -88 -143 -122 -267 -15 -56
-31 -101 -35 -101 -12 0 -12 0 11 93 30 119 80 234 121 277 20 21 41 51 48 67
15 37 54 57 166 87 64 17 94 21 103 14 21 -18 24 -4 27 97 2 86 5 100 31 141
16 25 40 52 54 59 14 7 63 32 110 56 120 60 160 89 200 148 19 28 38 51 43 51
15 0 7 78 -10 91 -48 41 -51 110 -7 226 l23 62 -32 20 c-39 23 -101 41 -145
41 -18 0 -48 7 -67 14 -40 17 -44 38 -20 106 8 23 15 48 15 55 0 22 -142 130
-287 218 -231 141 -216 135 -415 148 -222 15 -260 29 -332 125 l-50 66 -59 -4
c-82 -4 -85 15 -6 38 67 20 97 44 180 144 86 103 104 131 127 195 20 55 22 76
20 235 l-3 175 32 67 c24 50 51 86 115 147 46 44 104 96 128 115 58 45 117
122 141 186 18 48 59 354 48 364 -2 3 -36 1 -74 -4 -39 -5 -99 -11 -135 -14
-36 -3 -114 -12 -175 -20 -393 -52 -629 -75 -633 -60 -3 12 -52 7 -52 -5 0 -4
-29 -7 -65 -7 -36 1 -65 4 -65 9 0 4 5 7 11 7 5 0 112 13 237 30 125 16 295
36 377 45 83 9 220 25 305 36 85 12 183 23 218 26 35 3 62 11 62 17 0 6 9 70
18 142 21 149 52 227 106 269 42 32 159 86 261 120 64 21 109 28 225 35 129 7
329 39 425 69 17 5 63 10 104 10 58 1 83 -4 121 -23z m1364 -112 c8 -32 1 -44
-9 -15 -3 12 -11 19 -16 16 -10 -7 -12 8 -2 18 12 13 21 7 27 -19z m-39 -10
c23 -9 -344 -140 -460 -165 -106 -22 -118 -23 -113 -7 2 6 45 19 96 30 76 15
247 71 412 134 42 16 44 16 65 8z m-586 -146 c-1 -7 -5 -24 -9 -38 -7 -23 -8
-23 -9 -3 -1 12 -4 28 -7 37 -4 11 -1 16 10 16 9 0 16 -6 15 -12z m-3206 -205
c-7 -2 -14 -19 -14 -36 l-2 -32 -4 30 c-3 16 -10 33 -16 37 -7 4 2 7 18 7 17
0 24 -3 18 -6z m373 -4 c6 -10 -36 -59 -51 -59 -3 0 -5 16 -5 35 0 30 3 35 24
35 14 0 28 -5 32 -11z m268 -10 c56 -26 53 -105 -4 -129 -80 -33 -135 90 -56
128 28 14 31 14 60 1z m-575 -26 c0 -16 -3 -22 -6 -15 -2 6 -12 12 -21 12 -15
0 -15 -2 -2 -11 12 -9 12 -10 1 -7 -25 7 -24 28 1 29 22 0 22 1 3 9 -19 8 -19
9 3 9 18 1 22 -4 21 -26z m90 -2 c-2 -23 -2 -24 -6 -3 -2 12 -9 22 -14 22 -5
0 -10 -10 -10 -22 l-2 -23 -4 23 c-2 12 -11 22 -18 22 -7 0 -16 -10 -18 -22
-4 -20 -4 -20 -6 4 -1 25 2 27 39 26 37 0 40 -2 39 -27z m60 2 c0 -16 -3 -22
-6 -15 -2 6 -9 12 -14 12 -6 0 -7 -4 -4 -10 3 -5 2 -10 -4 -10 -22 0 -22 22 0
27 22 6 22 7 3 14 -18 7 -17 8 4 8 18 1 22 -4 21 -26z m60 0 c-2 -24 -2 -25
-6 -5 -5 27 -23 29 -23 2 0 -11 -4 -20 -10 -20 -5 0 -10 11 -10 25 0 20 5 25
25 25 21 0 25 -4 24 -27z m132 -13 c5 0 9 9 9 20 0 11 5 20 10 20 6 0 10 -11
10 -25 0 -20 -5 -25 -25 -25 -21 0 -25 4 -24 28 2 23 2 24 6 5 2 -13 9 -23 14
-23z m63 32 c-7 -4 -14 -16 -17 -27 -4 -15 -5 -14 -6 8 -1 20 4 27 17 27 11 0
13 -3 6 -8z m23 -29 c-3 -10 -5 -4 -5 12 0 17 2 24 5 18 2 -7 2 -21 0 -30z
m-501 -68 c3 -14 10 -25 14 -25 4 0 11 11 14 25 10 38 26 30 25 -12 -1 -33 -2
-35 -8 -13 l-7 25 -8 -22 c-4 -13 -11 -23 -16 -23 -5 0 -12 10 -16 23 l-8 22
-7 -25 c-6 -22 -7 -20 -8 13 -1 42 15 50 25 12z m307 -6 c9 7 12 3 12 -14 0
-16 -3 -20 -12 -14 -7 7 -13 5 -16 -3 -3 -7 -5 5 -5 27 0 23 3 30 5 17 3 -16
8 -20 16 -13z m-195 -17 c3 -18 -1 -22 -22 -22 -32 0 -34 20 -4 28 21 5 21 6
2 14 -18 8 -18 8 1 5 12 -1 21 -11 23 -25z m60 11 c2 -8 -6 -13 -20 -14 -22 0
-22 -1 -3 -9 19 -8 19 -9 -2 -9 -23 -1 -32 26 -16 43 10 10 36 3 41 -11z m36
9 c-7 -4 -14 -16 -17 -27 -4 -15 -5 -14 -6 8 -1 20 4 27 17 27 11 0 13 -3 6
-8z m60 -8 c8 -21 -1 -34 -24 -34 -20 0 -30 17 -22 38 6 17 39 15 46 -4z m116
-9 c0 -18 -5 -25 -19 -25 -11 0 -23 5 -26 10 -11 18 3 40 25 40 15 0 20 -7 20
-25z m60 15 c0 -5 -7 -7 -15 -4 -10 4 -15 0 -15 -11 0 -11 5 -15 15 -11 8 3
15 1 15 -4 0 -15 -38 -12 -43 3 -2 6 -2 18 1 25 5 14 42 17 42 2z m60 -15 c0
-18 -5 -25 -19 -25 -11 0 -23 5 -26 10 -11 18 3 40 25 40 15 0 20 -7 20 -25z
m-565 -165 c14 -5 25 -17 25 -26 0 -13 -6 -15 -27 -9 -47 13 -191 17 -210 6
-23 -11 -48 1 -41 20 7 17 213 24 253 9z m55 -29 c0 -33 -11 -51 -31 -51 -10
0 -19 4 -19 10 0 5 7 7 15 4 11 -5 15 1 15 25 0 17 5 31 10 31 6 0 10 -9 10
-19z m180 -15 c0 -28 -3 -33 -22 -32 -16 1 -24 8 -26 24 -2 12 1 22 6 22 6 0
8 -10 5 -21 -4 -16 -2 -20 8 -17 8 3 15 11 15 19 1 8 2 20 3 27 2 26 11 10 11
-22z m177 -18 c-2 -13 -4 -5 -4 17 -1 22 1 32 4 23 2 -10 2 -28 0 -40z m-301
-3 c-3 -9 -14 -15 -23 -13 -22 4 -30 38 -11 49 18 11 43 -15 34 -36z m52 32
c14 -10 16 -47 2 -47 -5 0 -10 12 -10 27 0 29 -15 22 -23 -12 -3 -13 -5 -9 -6
12 -1 31 9 37 37 20z m130 -21 c-4 -25 -36 -34 -44 -12 -8 21 13 46 32 39 8
-3 14 -15 12 -27z m33 15 c-5 -9 -11 -23 -14 -31 -3 -8 -6 -1 -6 16 -1 20 4
31 13 31 10 0 12 -5 7 -16z m69 -22 c0 -14 -7 -19 -25 -19 -16 0 -25 6 -25 15
0 8 7 15 15 15 8 0 15 4 15 10 0 5 -8 7 -17 4 -15 -5 -15 -4 -3 4 18 14 40 -3
40 -29z m3549 8 c-78 -54 -78 -55 -76 -112 3 -55 -5 -70 -18 -37 -7 16 -8 15
-15 -3 -6 -15 -9 -7 -9 28 -1 38 2 47 17 47 14 0 15 2 2 10 -13 9 -13 11 0 20
8 5 20 10 25 10 6 0 24 11 40 24 17 13 32 22 34 20 2 -2 2 -5 0 -7z m2325 -42
c7 -18 -5 -20 -22 -3 -9 9 -12 8 -12 -5 0 -10 8 -17 20 -17 24 0 25 -9 6 -35
-12 -16 -16 -17 -30 -6 -16 13 -22 62 -9 74 12 12 41 7 47 -8z m46 5 c-13 -9
-13 -11 0 -20 13 -9 13 -11 0 -21 -11 -8 -12 -12 -2 -16 19 -8 14 -23 -8 -23
-17 0 -20 7 -20 45 0 40 2 45 23 45 18 0 19 -2 7 -10z m77 -30 c1 -34 -9 -50
-34 -50 -9 0 -13 16 -13 46 0 41 2 45 23 42 18 -2 22 -10 24 -38z m61 -2 c12
-45 7 -62 -9 -38 -8 11 -12 12 -16 3 -11 -30 -25 -11 -18 24 12 68 28 72 43
11z m52 20 l9 -23 0 23 c2 43 21 22 21 -23 0 -47 -12 -58 -29 -27 -10 16 -10
16 -11 0 0 -10 -4 -18 -10 -18 -5 0 -10 20 -10 45 0 48 15 59 30 23z m85 11
c4 -6 4 -13 0 -17 -3 -3 -10 0 -15 8 -8 12 -10 12 -16 -3 -8 -22 3 -50 17 -41
8 4 7 9 -2 15 -11 7 -10 9 4 9 10 0 17 -8 17 -19 0 -20 -17 -31 -37 -24 -13 5
-18 65 -6 76 10 10 31 8 38 -4z m65 -4 c0 -9 -6 -12 -17 -8 -11 4 -9 -2 7 -15
24 -20 24 -22 8 -38 -17 -18 -19 -18 -35 0 -17 17 -17 18 7 11 24 -7 24 -7 8
12 -24 27 -23 53 2 53 11 0 20 -7 20 -15z m64 -16 c11 -54 9 -64 -11 -48 -13
11 -17 11 -20 2 -3 -7 -8 -13 -12 -13 -5 0 -4 20 2 45 12 52 32 59 41 14z m72
-16 c0 -47 -10 -56 -22 -20 l-8 22 -7 -25 c-5 -19 -7 -14 -8 23 -1 45 1 48 22
45 19 -3 22 -9 23 -45z m34 2 c0 -25 -4 -45 -10 -45 -5 0 -10 20 -10 45 0 25
5 45 10 45 6 0 10 -20 10 -45z m-6770 -11 c13 -33 13 -54 0 -34 -8 12 -13 13
-29 3 -18 -11 -18 -10 -8 23 12 41 24 43 37 8z m63 3 c18 -7 24 -47 7 -47 -5
0 -10 9 -10 20 0 27 -18 25 -23 -2 -2 -13 -5 -6 -5 17 -1 22 2 35 6 29 4 -6
15 -13 25 -17z m227 -12 c0 -31 -3 -35 -25 -35 -32 0 -36 39 -5 47 11 3 20 9
20 14 0 5 2 9 5 9 3 0 5 -16 5 -35z m86 23 c10 14 10 10 1 -20 -7 -21 -14 -38
-17 -38 -3 0 -10 16 -16 36 -11 32 -10 34 4 20 14 -14 17 -13 28 2z m-471 -78
l0 -75 -75 0 -75 0 -3 64 c-4 92 -4 92 80 89 l73 -3 0 -75z m3133 68 c27 -27
7 -78 -30 -78 -15 0 -18 8 -18 45 0 37 3 45 18 45 10 0 23 -5 30 -12z m69 -33
c9 -42 3 -59 -13 -34 -4 8 -9 8 -17 0 -20 -20 -24 -11 -14 34 6 25 16 45 22
45 6 0 16 -20 22 -45z m61 36 c8 -5 12 -22 10 -42 -2 -26 -8 -35 -25 -37 -21
-3 -23 1 -23 42 0 46 10 55 38 37z m65 -8 c14 -51 16 -73 8 -73 -5 0 -12 6
-14 13 -4 9 -8 8 -16 -3 -17 -24 -23 -4 -11 39 11 43 25 53 33 24z m75 -11 c2
-13 -3 -25 -12 -28 -9 -3 -16 -12 -16 -20 0 -8 -4 -14 -10 -14 -5 0 -10 21
-10 46 0 41 2 45 23 42 14 -2 23 -11 25 -26z m60 10 c2 -8 -3 -10 -15 -6 -17
5 -17 5 0 -9 10 -9 17 -24 15 -34 -4 -21 -39 -25 -46 -4 -3 10 2 11 19 6 l24
-7 -23 22 c-18 17 -21 25 -11 36 13 16 31 14 37 -4z m65 -26 c10 -40 2 -60
-14 -36 -8 13 -10 13 -18 0 -16 -25 -21 -7 -9 38 13 51 29 50 41 -2z m65 31
c7 -8 7 -18 2 -27 -5 -8 -5 -21 1 -32 13 -24 -6 -24 -20 0 -10 16 -10 16 -11
0 0 -10 -4 -18 -10 -18 -5 0 -10 20 -10 45 0 37 3 45 19 45 10 0 23 -6 29 -13z
m42 -12 c0 -24 2 -25 70 -25 51 0 82 6 110 20 22 11 40 18 40 15 0 -2 -18 -14
-40 -25 -28 -14 -59 -20 -110 -20 -56 0 -70 -3 -70 -15 0 -8 -4 -15 -10 -15
-5 0 -10 20 -10 45 0 25 5 45 10 45 6 0 10 -11 10 -25z m-3371 -14 c-2 -23 -2
-24 -6 -3 -5 27 -23 29 -23 2 0 -11 -4 -20 -10 -20 -5 0 -10 9 -10 20 0 27
-18 25 -23 -2 -4 -20 -4 -20 -6 4 -1 25 2 27 39 26 37 0 40 -2 39 -27z m58 -1
c1 -14 0 -19 -3 -12 -3 6 -13 12 -22 12 -15 0 -15 -2 -2 -10 13 -8 12 -10 -2
-10 -26 0 -22 21 4 28 21 5 21 6 2 14 -18 8 -18 8 1 5 13 -1 21 -11 22 -27z
m221 2 c3 -18 -1 -22 -22 -22 -16 0 -26 6 -26 15 0 8 8 15 18 15 15 0 15 2 2
11 -12 8 -12 10 5 7 12 -2 21 -12 23 -26z m60 1 c2 -13 -1 -23 -7 -23 -6 0
-11 9 -11 20 0 27 -18 25 -23 -2 -4 -19 -4 -18 -6 5 -1 24 2 28 22 25 14 -2
23 -11 25 -25z m19 -10 c-3 -10 -5 -4 -5 12 0 17 2 24 5 18 2 -7 2 -21 0 -30z
m3343 28 c0 -5 -6 -12 -12 -15 -10 -5 -10 -7 1 -12 11 -5 11 -8 0 -16 -11 -7
-11 -11 -1 -15 19 -8 14 -23 -8 -23 -17 0 -20 7 -20 45 0 38 3 45 20 45 11 0
20 -4 20 -9z m59 -36 c-3 -47 3 -61 20 -51 7 5 7 14 0 30 -8 17 -8 30 1 45 17
32 44 22 51 -19 l6 -35 2 38 c1 42 24 51 36 15 l8 -23 4 23 c2 12 11 22 19 22
10 0 14 -13 14 -45 0 -42 -19 -66 -21 -27 -1 16 -2 16 -6 0 -2 -10 -9 -18 -14
-18 -5 0 -10 8 -10 18 -1 16 -2 16 -6 -1 -3 -12 -11 -16 -23 -12 -11 3 -29 -4
-48 -20 -36 -30 -52 -32 -52 -6 0 11 -4 23 -10 26 -5 3 -10 11 -10 16 0 6 5 7
10 4 6 -4 10 8 10 29 0 20 5 36 11 36 6 0 9 -18 8 -45z m193 8 l1 -38 4 38 c6
52 25 47 21 -5 -2 -35 -7 -43 -23 -43 -16 0 -21 8 -23 43 -2 25 1 42 7 42 6 0
12 -17 13 -37z m74 -33 c8 0 14 -4 14 -10 0 -5 -9 -10 -20 -10 -17 0 -20 6
-18 48 1 43 2 44 5 10 3 -25 9 -38 19 -38z m44 53 c0 -15 2 -14 15 3 18 24 19
10 1 -39 l-13 -39 -6 29 c-3 15 -9 36 -12 46 -4 10 -3 17 4 17 6 0 11 -8 11
-17z m88 5 c30 -30 -1 -94 -33 -68 -25 20 -13 80 15 80 3 0 11 -5 18 -12z
m-4358 -108 c0 -22 -4 -40 -10 -40 -5 0 -10 18 -10 40 0 22 5 40 10 40 6 0 10
-18 10 -40z m587 -22 c-2 -13 -4 -3 -4 22 0 25 2 35 4 23 2 -13 2 -33 0 -45z
m-492 12 c2 -16 -1 -28 -5 -25 -10 6 -19 53 -12 60 9 9 15 -3 17 -35z m259 1
c1 -16 -2 -27 -5 -25 -9 5 -17 52 -11 59 9 9 15 -4 16 -34z m3173 -13 c-2 -13
-4 -5 -4 17 -1 22 1 32 4 23 2 -10 2 -28 0 -40z m-3471 9 c1 -25 1 -25 -3 -2
-6 32 -23 33 -23 0 0 -14 -4 -25 -10 -25 -5 0 -10 14 -10 31 0 26 3 30 23 27
16 -2 22 -10 23 -31z m102 16 c2 -8 -5 -13 -18 -13 -12 0 -19 -4 -15 -10 3 -5
13 -7 23 -4 14 5 15 4 2 -5 -19 -13 -45 11 -36 34 7 18 37 17 44 -2z m33 3
c-5 -6 -11 -20 -14 -31 -3 -14 -5 -10 -6 11 -1 21 4 31 14 31 9 0 11 -4 6 -11z
m65 -19 c1 -26 1 -26 -3 -2 -5 31 -25 28 -34 -6 -6 -22 -7 -21 -8 7 -1 26 3
31 22 30 17 -1 22 -7 23 -29z m62 2 c3 -22 -1 -26 -20 -25 -13 0 -23 7 -22 14
1 6 2 19 3 28 2 26 36 12 39 -17z m72 1 c0 -16 -4 -30 -10 -30 -5 0 -10 14
-10 30 0 17 5 30 10 30 6 0 10 -13 10 -30z m58 6 c4 -21 -14 -37 -35 -29 -14
5 -18 35 -6 47 12 12 38 1 41 -18z m58 -9 c1 -26 1 -26 -3 -2 -5 31 -25 28
-34 -6 -6 -22 -7 -21 -8 7 -1 26 3 31 22 30 17 -1 22 -7 23 -29z m62 2 c3 -22
-1 -26 -20 -25 -22 1 -32 26 -20 49 9 18 37 0 40 -24z m3315 10 c4 -16 11 -19
26 -14 25 7 28 -10 5 -23 -12 -6 -14 -17 -9 -43 10 -55 21 -68 38 -45 14 19
15 19 15 -7 0 -44 17 -56 90 -60 l67 -3 -71 -2 c-64 -2 -73 0 -87 21 -13 18
-17 20 -29 9 -11 -11 -9 -16 9 -31 20 -17 22 -29 28 -202 3 -101 8 -229 10
-284 2 -55 7 -185 10 -290 3 -104 8 -228 11 -274 l6 -83 104 7 c91 6 103 5 98
-8 -4 -11 -28 -17 -92 -22 -114 -8 -114 -8 -108 -47 7 -44 16 -316 11 -303 -3
6 -8 81 -13 168 -5 87 -13 162 -19 168 -5 5 -41 6 -86 3 -86 -8 -86 -8 -63
-86 20 -66 24 -218 6 -218 -6 0 -10 34 -10 83 0 101 -23 190 -48 185 -9 -2
-21 -12 -27 -23 -14 -28 -50 -71 -112 -133 -49 -49 -72 -80 -38 -52 17 14 20
3 6 -19 -6 -9 -6 -22 1 -34 12 -22 1 -38 -12 -17 -7 10 -10 11 -10 3 0 -7 -4
-13 -10 -13 -5 0 -10 21 -10 46 0 26 -4 43 -10 39 -5 -3 -7 -12 -3 -20 3 -8 2
-27 -1 -41 -10 -37 -50 -30 -54 9 -4 30 14 60 32 54 27 -10 196 147 196 181 0
5 7 15 15 22 22 19 9 29 -33 24 -20 -2 -107 -6 -193 -10 -86 -3 -162 -10 -169
-14 -11 -7 -11 -23 1 -92 12 -68 13 -91 3 -126 -7 -24 -10 -49 -7 -57 3 -8 0
-15 -6 -15 -6 0 -12 8 -12 18 -1 16 -2 16 -6 0 -9 -35 -23 -17 -23 28 0 44 1
46 25 40 17 -4 23 -2 21 6 -2 7 -10 54 -16 105 l-13 91 -86 8 c-47 4 -128 8
-178 8 -51 1 -93 4 -93 9 0 4 -12 7 -27 8 -16 0 -67 10 -115 22 l-87 23 -7
-44 c-3 -23 -4 -45 -1 -48 7 -7 198 -64 214 -64 7 0 16 18 19 40 4 22 11 40
16 40 6 0 8 -18 4 -45 l-7 -45 109 -51 c102 -48 109 -52 105 -77 -3 -26 -3
-27 8 -4 12 23 29 30 29 12 0 -5 7 -10 15 -10 8 0 15 5 15 10 0 27 19 5 28
-32 12 -45 7 -62 -9 -38 -8 11 -12 12 -16 3 -9 -25 -22 -13 -17 16 4 20 1 30
-9 34 -20 7 -30 -19 -17 -44 7 -11 7 -19 1 -19 -5 0 -12 6 -14 13 -4 9 -8 8
-16 -3 -8 -11 -11 -4 -11 33 0 53 -11 61 -26 20 -19 -52 26 -193 76 -238 22
-19 22 -19 40 5 11 14 25 38 31 54 11 24 10 31 -3 40 -14 10 -14 15 -2 39 8
15 17 27 20 27 2 0 0 -9 -6 -19 -16 -31 -13 -37 31 -57 40 -18 42 -18 55 1 8
10 14 15 14 9 0 -18 -16 -32 -40 -35 -19 -3 -33 -20 -61 -69 -19 -36 -60 -108
-91 -160 -58 -101 -83 -162 -75 -184 3 -8 25 -17 49 -21 24 -4 59 -16 78 -27
44 -25 130 -137 130 -169 0 -19 -2 -21 -10 -9 -7 10 -8 1 -4 -30 7 -43 6 -44
-11 -30 -14 11 -19 12 -22 3 -3 -7 -8 -13 -12 -13 -5 0 -4 20 2 45 7 30 16 45
26 45 10 0 7 5 -9 13 -13 7 -39 32 -58 57 -36 47 -58 62 -123 85 -55 20 -61 0
-20 -63 31 -49 40 -82 21 -82 -5 0 -10 6 -10 13 0 7 -15 36 -34 64 -19 29 -36
63 -38 75 -3 20 -13 25 -88 39 -126 24 -166 37 -221 71 l-50 30 -77 -12 c-45
-7 -108 -10 -152 -6 -131 11 -144 11 -178 4 -25 -6 -33 -5 -30 4 3 7 24 16 49
20 36 6 51 16 84 55 82 98 96 109 165 122 102 20 96 8 116 196 5 49 -5 193
-19 288 -4 25 -9 28 -144 87 -68 30 -123 57 -123 62 0 4 2 8 4 8 5 0 95 -40
186 -83 41 -20 78 -34 82 -31 4 3 10 32 14 65 6 50 9 59 23 53 22 -10 146 -41
191 -49 l38 -6 4 80 3 80 -44 3 c-30 2 -47 9 -55 22 -8 14 -8 20 1 23 10 4 9
10 -2 26 -19 28 -19 87 1 115 9 14 26 22 44 22 l28 0 -20 77 c-11 43 -22 81
-24 85 -8 13 -45 -11 -129 -85 l-80 -71 68 71 c37 39 67 77 67 83 0 9 -13 10
-47 5 -67 -10 -50 1 22 14 87 16 88 19 61 127 -13 52 -34 107 -48 125 -14 19
-28 42 -31 52 -6 16 -8 16 -37 -2 -35 -21 -48 -37 -85 -107 -30 -57 -23 -20 8
44 14 29 34 50 59 63 20 10 39 23 43 29 3 5 14 10 22 10 9 0 126 54 260 120
134 66 249 120 255 120 6 0 7 7 3 18 -15 35 -23 97 -14 108 22 26 80 24 138
-6 63 -31 92 -27 85 12 l-5 23 10 -22 c7 -16 19 -23 38 -23 67 2 232 28 270
44 39 16 42 20 36 47 -6 33 12 41 20 8z m261 -31 c20 -44 25 -76 29 -188 3
-74 13 -160 21 -190 23 -82 63 -286 70 -359 3 -35 1 -114 -4 -175 -6 -61 -17
-210 -26 -331 -23 -343 -55 -669 -65 -680 -6 -5 -7 8 -5 35 12 116 28 287 37
410 5 74 14 191 19 260 25 336 31 459 25 505 -9 68 -42 234 -66 325 -12 46
-22 125 -26 205 -4 107 -9 139 -29 183 -12 28 -18 52 -13 52 6 0 21 -24 33
-52z m-4114 -64 c13 -33 13 -54 0 -34 -8 13 -13 13 -31 2 -20 -13 -21 -12 -14
5 4 10 10 26 12 36 8 25 22 21 33 -9z m284 -13 c1 -17 -1 -31 -5 -31 -9 0 -17
42 -11 59 6 19 14 6 16 -28z m71 -6 c0 -25 -1 -45 -2 -45 -10 0 -22 45 -17 65
10 39 19 30 19 -20z m65 36 c0 -5 -9 -7 -20 -4 -29 8 -25 -6 6 -17 14 -6 24
-16 22 -23 -5 -14 -58 -23 -58 -9 0 6 9 8 20 5 11 -3 20 0 20 6 0 6 -6 11 -14
11 -18 0 -29 16 -21 30 8 12 45 13 45 1z m68 -27 c-1 -31 -3 -34 -13 -20 -16
21 -22 20 -28 -1 -3 -10 -5 -1 -6 20 -1 33 2 37 24 37 22 0 24 -4 23 -36z m82
28 c0 -5 -10 -8 -22 -8 -29 1 -32 -37 -4 -42 14 -3 17 0 13 12 -4 10 -1 16 8
16 17 0 19 -9 6 -28 -12 -19 -55 -11 -59 11 -6 30 6 47 33 47 14 0 25 -4 25
-8z m43 -37 c0 -15 -4 -30 -9 -35 -5 -5 -9 10 -9 35 0 25 4 40 9 35 5 -5 9
-20 9 -35z m-576 -12 c-3 -10 -5 -4 -5 12 0 17 2 24 5 18 2 -7 2 -21 0 -30z
m35 12 c-2 -14 -8 -25 -13 -25 -5 0 -9 11 -9 25 0 14 6 25 14 25 9 0 12 -8 8
-25z m76 2 c3 -12 -4 -20 -17 -24 -12 -3 -21 -9 -21 -14 0 -5 -4 -9 -10 -9 -5
0 -10 16 -10 36 0 33 2 35 27 32 17 -2 29 -10 31 -21z m57 -2 c0 -30 -39 -27
-43 3 -3 20 0 23 20 20 15 -2 23 -10 23 -23z m39 17 c-7 -4 -14 -16 -17 -27
-4 -15 -5 -14 -6 8 -1 20 4 27 17 27 11 0 13 -3 6 -8z m3954 -89 c-10 -2 -26
-2 -35 0 -10 3 -2 5 17 5 19 0 27 -2 18 -5z m110 -10 c-10 -2 -28 -2 -40 0
-13 2 -5 4 17 4 22 1 32 -1 23 -4z m55 -10 c-7 -2 -19 -2 -25 0 -7 3 -2 5 12
5 14 0 19 -2 13 -5z m50 -10 c-7 -2 -19 -2 -25 0 -7 3 -2 5 12 5 14 0 19 -2
13 -5z m101 -28 l31 -14 -35 6 c-19 4 -46 13 -60 21 l-25 14 29 -7 c16 -3 43
-12 60 -20z m109 -35 c31 -12 69 -37 92 -60 53 -54 39 -60 -16 -7 -25 24 -69
52 -99 64 -30 12 -50 22 -43 22 7 1 36 -8 66 -19z m-2585 -198 c2 -13 -3 -25
-12 -28 -9 -3 -16 -12 -16 -20 0 -8 -4 -14 -10 -14 -5 0 -10 21 -10 46 0 41 2
45 23 42 14 -2 23 -11 25 -26z m42 -7 c0 -19 5 -35 10 -35 6 0 10 -4 10 -10 0
-5 -9 -10 -20 -10 -17 0 -20 7 -20 45 0 25 5 45 10 45 6 0 10 -16 10 -35z m78
23 c16 -16 15 -40 -2 -63 -12 -16 -16 -17 -30 -6 -16 13 -22 62 -9 74 10 11
28 8 41 -5z m51 -19 l4 -24 6 24 c12 44 31 37 31 -11 0 -44 0 -45 -35 -45 -35
0 -35 1 -35 45 0 47 22 56 29 11z m99 -11 c-2 -36 -7 -44 -25 -46 -21 -3 -23
1 -23 42 0 43 2 46 26 46 23 0 25 -3 22 -42z m67 -3 c0 -30 -4 -41 -17 -43
-26 -5 -44 39 -28 67 19 36 45 22 45 -24z m35 28 c1 -17 1 -17 11 0 15 25 32
22 18 -4 -8 -16 -8 -28 0 -45 12 -28 4 -32 -15 -6 -13 16 -13 16 -14 0 0 -10
-4 -18 -10 -18 -5 0 -10 20 -10 45 0 25 5 45 10 45 6 0 10 -8 10 -17z m98 -25
c12 -45 7 -62 -9 -38 -8 11 -12 12 -16 3 -11 -30 -25 -11 -18 24 12 68 28 72
43 11z m48 20 l8 -23 7 25 c5 19 7 14 8 -22 1 -27 -3 -48 -9 -48 -5 0 -11 8
-11 18 -1 16 -2 16 -6 0 -9 -34 -23 -17 -23 27 0 48 14 60 26 23z m6 -258
c-20 -43 -38 -78 -40 -76 -4 5 65 156 72 156 2 0 -12 -36 -32 -80z m-97 -90
c12 -4 -7 -6 -45 -3 -36 3 -67 7 -69 9 -9 8 95 2 114 -6z m218 3 c-7 -2 -19
-2 -25 0 -7 3 -2 5 12 5 14 0 19 -2 13 -5z m-354 -7 c-2 -2 -31 -6 -64 -9 -37
-3 -51 -2 -35 3 25 8 107 13 99 6z m291 -7 c-14 -4 -42 -7 -62 -8 -26 -1 -41
-8 -53 -23 l-16 -23 3 25 c2 14 6 27 10 30 4 3 37 5 75 6 44 0 59 -2 43 -7z
m-440 -19 c-14 -4 -34 -8 -45 -8 -16 0 -15 2 5 8 14 4 34 8 45 8 16 0 15 -2
-5 -8z m-125 -39 c-33 -15 -80 -40 -105 -55 -25 -16 -38 -21 -30 -13 18 19
166 97 183 97 7 -1 -15 -13 -48 -29z m416 -49 c-5 -10 -7 -28 -4 -40 4 -16 1
-22 -11 -22 -21 0 -36 -39 -36 -91 0 -32 -3 -39 -20 -39 -18 0 -20 7 -20 81 0
77 1 80 23 79 39 -4 44 -1 57 30 7 17 15 29 17 26 3 -2 0 -13 -6 -24z m-137
-54 c10 -14 16 -44 16 -80 l0 -57 -57 0 c-67 0 -83 10 -83 50 0 31 23 49 64
49 26 0 35 14 16 25 -6 4 -17 1 -25 -5 -8 -6 -23 -10 -35 -8 -19 3 -20 4 -5
26 22 31 87 31 109 0z m456 2 c5 -10 10 -46 10 -79 0 -58 -1 -61 -25 -61 -24
0 -25 3 -25 59 0 63 -11 81 -35 61 -10 -8 -15 -31 -15 -66 0 -47 -2 -54 -20
-54 -18 0 -20 7 -20 79 l0 79 60 1 c49 0 61 -3 70 -19z m-4491 -132 c14 -24
13 -29 -12 -67 -26 -39 -30 -41 -77 -41 -46 0 -51 3 -75 37 -29 44 -30 51 -9
81 14 21 23 23 87 20 65 -3 73 -5 86 -30z m4067 -65 c-11 -11 -17 4 -9 23 7
18 8 18 11 1 2 -10 1 -21 -2 -24z m-3948 -20 c83 -46 119 -77 142 -122 29 -57
82 -77 247 -91 131 -12 182 -22 256 -51 79 -31 157 -45 202 -37 22 4 65 10 95
13 157 15 250 30 400 65 91 21 190 43 220 49 30 6 111 23 178 37 72 15 135 23
150 19 34 -8 15 -20 -48 -30 -66 -10 -203 -36 -220 -43 -22 -8 -21 -8 -80 -16
-30 -4 -120 -23 -200 -41 -80 -19 -197 -41 -260 -50 -152 -22 -142 -17 -125
-64 7 -22 25 -86 39 -143 21 -87 24 -114 16 -173 -4 -38 -13 -83 -20 -100 -31
-78 -4 -168 84 -285 31 -40 49 -81 70 -150 15 -52 34 -105 41 -116 9 -14 59
-40 135 -70 l121 -48 102 -110 c357 -388 456 -480 787 -729 141 -107 174 -118
417 -147 101 -11 197 -26 215 -32 68 -23 333 -183 378 -228 25 -25 89 -95 142
-156 91 -105 95 -112 72 -117 -22 -4 -39 12 -132 125 -105 127 -109 131 -237
207 -252 151 -240 146 -415 165 -219 24 -302 41 -347 69 -21 14 -141 104 -268
201 -230 176 -230 176 -480 449 l-251 272 -98 37 c-55 21 -116 49 -137 64 -39
26 -47 47 -96 219 -3 11 -26 45 -51 75 -86 105 -112 195 -88 306 30 143 29
197 -12 329 l-37 120 -90 1 c-75 0 -106 6 -185 33 -56 20 -138 39 -200 46
-238 30 -263 40 -314 119 -24 38 -50 62 -92 87 -47 26 -117 58 -131 59 -2 0
-3 7 -3 16 0 20 26 12 108 -33z m2227 -43 c7 -24 -1 -40 -20 -40 -17 0 -34 30
-28 48 7 19 41 14 48 -8z m-72 -18 c-2 -12 3 -22 10 -22 17 0 -14 -20 -32 -20
-10 0 -10 6 4 26 9 14 14 29 10 32 -3 4 -10 0 -15 -8 -5 -8 -12 -11 -15 -8
-11 11 6 29 23 26 11 -3 16 -12 15 -26z m-221 -57 c3 -14 1 -28 -3 -31 -5 -3
-9 4 -9 15 0 10 -5 21 -12 23 -6 2 -8 10 -4 16 10 17 23 7 28 -23z m3981 -1
c24 -4 37 -12 37 -22 0 -12 -10 -14 -52 -8 -29 3 -65 6 -80 6 -18 0 -28 5 -28
15 0 16 53 20 123 9z m-5552 -158 c-20 -21 -129 -86 -145 -86 -16 0 -3 19 17
24 12 3 45 23 72 45 57 45 92 55 56 17z m1829 -167 c5 -202 12 -225 70 -271
203 -157 260 -225 260 -306 0 -26 -7 -60 -15 -76 -21 -40 -19 -48 21 -87 20
-18 65 -77 99 -130 l63 -96 91 -12 c51 -7 102 -10 115 -7 13 3 43 27 68 54
l45 48 6 104 c6 108 14 145 49 217 19 38 24 42 62 45 27 2 41 8 43 18 8 67 16
90 28 90 18 0 9 -94 -12 -126 -12 -20 -18 -21 -49 -11 -41 13 -43 11 -75 -73
-14 -38 -22 -89 -26 -165 l-6 -110 -58 -59 -59 -59 -82 8 c-156 15 -148 17
-168 -41 -30 -87 -33 -89 -127 -119 -48 -15 -94 -33 -102 -41 -8 -7 -35 -55
-60 -106 -43 -86 -48 -93 -73 -90 -28 3 -98 -24 -98 -39 0 -6 -90 -65 -187
-122 -6 -4 -14 -3 -17 2 -3 5 37 34 90 66 52 31 98 63 100 70 6 16 75 45 107
45 18 0 30 17 65 90 24 50 53 97 65 105 12 7 59 26 104 40 l82 27 21 57 c11
31 24 63 29 71 17 30 -149 258 -203 279 -18 7 -18 8 2 27 27 25 42 66 42 113
0 51 -44 107 -155 196 -48 39 -101 81 -117 94 -58 47 -68 91 -68 293 0 139 3
179 13 176 9 -4 13 -54 17 -189z m-2743 79 c-2 -13 -4 -3 -4 22 0 25 2 35 4
23 2 -13 2 -33 0 -45z m329 27 c18 -45 18 -48 -6 -33 -17 11 -22 10 -30 -2 -5
-8 -11 -12 -13 -10 -5 6 23 80 30 80 2 0 11 -16 19 -35z m182 12 c8 3 6 -6 -5
-26 -24 -42 -33 -39 -33 12 1 35 3 39 13 26 7 -9 18 -14 25 -12z m8392 13 c0
-5 -4 -10 -10 -10 -5 0 -10 -18 -10 -40 0 -22 -4 -40 -10 -40 -5 0 -10 17 -10
38 0 21 -5 43 -12 50 -9 9 -5 12 20 12 18 0 32 -4 32 -10z m40 -30 c0 -29 4
-40 15 -40 8 0 15 -4 15 -10 0 -5 -11 -10 -25 -10 -23 0 -25 3 -25 50 0 28 5
50 10 50 6 0 10 -18 10 -40z m95 -10 c0 -41 -2 -45 -25 -45 -21 0 -26 5 -28
33 -5 47 4 64 30 60 20 -3 23 -9 23 -48z m83 31 c3 -9 -2 -11 -17 -6 -18 5
-21 2 -21 -24 0 -17 5 -31 11 -31 6 0 8 9 4 20 -5 14 -2 20 10 20 12 0 15 -7
13 -27 -2 -22 -8 -28 -28 -28 -21 0 -26 5 -28 33 -2 19 -1 41 2 49 7 18 48 14
54 -6z m150 0 c3 -10 0 -12 -12 -8 -9 4 -16 2 -16 -2 0 -5 7 -11 15 -15 20 -7
19 -45 -1 -53 -9 -3 -23 2 -32 12 -16 16 -16 17 6 10 25 -7 32 12 7 21 -8 4
-15 17 -15 31 0 19 4 24 22 21 12 -2 24 -9 26 -17z m71 -18 c13 -47 14 -63 2
-63 -5 0 -11 6 -14 13 -4 10 -7 10 -18 0 -23 -22 -26 -14 -15 37 12 59 31 65
45 13z m83 -13 c3 -52 -4 -63 -21 -32 -10 16 -10 16 -11 0 0 -10 -4 -18 -10
-18 -5 0 -10 23 -10 50 0 46 2 50 24 50 22 0 24 -5 28 -50z m38 0 c0 -27 -4
-50 -10 -50 -5 0 -10 23 -10 50 0 28 5 50 10 50 6 0 10 -22 10 -50z m-9546 -4
c-6 -25 -24 -37 -24 -16 0 13 23 50 28 46 1 -2 0 -15 -4 -30z m64 1 c3 -23 0
-27 -23 -27 -25 0 -28 11 -16 58 1 2 9 2 19 0 10 -2 18 -14 20 -31z m80 1 c3
-21 -1 -25 -19 -24 -22 1 -41 26 -20 26 6 0 11 -5 11 -11 0 -5 5 -7 11 -3 8 5
6 10 -5 16 -9 5 -14 14 -10 19 10 17 29 4 32 -23z m33 4 c0 -12 3 -9 10 7 5
13 12 21 15 19 9 -9 -24 -78 -37 -78 -8 0 -8 4 -1 13 5 7 6 21 1 32 -11 28
-11 37 1 30 6 -3 10 -14 11 -23z m77 16 c22 -22 14 -48 -13 -48 -22 0 -25 4
-21 28 2 15 5 28 5 30 2 6 18 1 29 -10z m64 -2 c11 -16 10 -46 -2 -46 -5 0
-10 12 -10 27 0 29 -15 22 -23 -12 -3 -14 -5 -10 -6 11 -1 23 3 31 17 31 9 0
20 -5 24 -11z m165 -21 c2 -25 1 -26 -5 -7 -4 13 -11 23 -17 23 -5 0 -13 -10
-17 -23 -5 -20 -6 -19 -7 8 -1 26 3 31 22 30 17 -1 22 -8 24 -31z m61 17 c2
-7 -3 -12 -12 -12 -9 0 -16 -5 -16 -11 0 -6 7 -8 18 -4 13 5 14 3 5 -6 -17
-17 -43 -4 -43 22 0 15 4 19 16 15 9 -4 13 -2 8 5 -4 7 -1 10 6 7 8 -2 16 -10
18 -16z m116 2 c12 -31 6 -44 -19 -44 -22 0 -25 4 -21 28 2 15 5 28 5 30 3 9
30 -1 35 -14z m162 -5 c36 -30 19 -106 -27 -121 -58 -19 -110 33 -91 91 15 45
80 62 118 30z m-221 -29 c3 -5 1 -10 -4 -10 -6 0 -11 5 -11 10 0 6 2 10 4 10
3 0 8 -4 11 -10z m4995 -61 c12 -43 6 -64 -11 -39 -8 13 -10 13 -18 0 -6 -8
-12 -12 -15 -9 -8 7 15 89 25 89 4 0 13 -18 19 -41z m50 19 l9 -23 0 23 c2 43
21 22 21 -23 0 -47 -12 -58 -29 -27 -10 16 -10 16 -11 0 0 -10 -4 -18 -10 -18
-11 0 -14 73 -3 83 10 11 13 9 23 -15z m187 -45 c-2 -16 -4 -5 -4 22 0 28 2
40 4 28 2 -13 2 -35 0 -50z m57 54 c26 -19 18 -71 -11 -75 -21 -3 -23 1 -23
42 0 49 5 54 34 33z m57 -61 c5 -6 9 4 9 26 0 20 5 40 11 43 7 5 9 -8 7 -37
-2 -36 -7 -44 -25 -46 -21 -3 -23 0 -21 45 1 40 2 42 5 13 3 -19 9 -39 14 -44z
m77 -9 c10 -3 5 -5 -10 -6 -26 -1 -28 2 -28 37 0 53 14 63 18 14 2 -28 8 -42
20 -45z m-5998 28 c0 -28 -4 -35 -19 -35 -11 0 -23 5 -27 11 -4 8 0 9 15 4 18
-5 21 -2 21 24 0 17 2 31 5 31 3 0 5 -16 5 -35z m273 11 c3 25 4 24 6 -8 1
-43 -12 -49 -31 -15 l-12 22 -7 -25 c-6 -21 -7 -18 -8 15 l0 40 24 -29 23 -29
5 29z m154 -28 c-2 -13 -4 -5 -4 17 -1 22 1 32 4 23 2 -10 2 -28 0 -40z m-367
7 c0 -18 -5 -25 -18 -25 -25 0 -31 7 -25 31 8 29 43 25 43 -6z m30 8 c0 -15 2
-14 15 3 17 23 19 17 4 -25 -6 -17 -15 -31 -21 -31 -5 0 -7 4 -4 9 4 5 2 21
-4 35 -6 17 -6 26 0 26 6 0 10 -8 10 -17z m88 -10 c3 -19 -1 -23 -22 -23 -21
0 -26 5 -26 26 0 21 4 25 23 22 14 -2 23 -11 25 -25z m170 -5 c-2 -27 -8 -33
-28 -35 -23 -2 -23 -2 -5 6 16 8 17 10 3 10 -41 2 -34 51 7 51 24 0 26 -3 23
-32z m60 5 c3 -19 -1 -23 -22 -23 -21 0 -26 5 -26 26 0 21 4 25 23 22 14 -2
23 -11 25 -25z m52 2 c0 -14 -4 -25 -10 -25 -5 0 -10 11 -10 25 0 14 5 25 10
25 6 0 10 -11 10 -25z m30 3 l9 -23 0 23 c1 12 6 22 12 22 7 0 8 -7 4 -17 -4
-10 -10 -26 -12 -35 -3 -10 -13 -18 -22 -17 -9 0 -11 3 -4 5 9 4 9 13 2 30
-10 29 -11 34 -4 34 3 0 10 -10 15 -22z m80 -3 c0 -18 -5 -25 -18 -25 -25 0
-31 7 -25 31 8 29 43 25 43 -6z m59 -2 c-2 -24 -2 -25 -6 -5 -5 27 -23 29 -23
2 0 -11 -4 -20 -10 -20 -5 0 -10 11 -10 25 0 20 5 25 25 25 21 0 25 -4 24 -27z
m41 23 c0 -3 -4 -8 -10 -11 -5 -3 -10 -1 -10 4 0 6 5 11 10 11 6 0 10 -2 10
-4z m8372 -28 l1 -33 4 33 c5 40 32 44 34 5 l2 -28 4 28 c5 30 23 37 23 8 0
-67 -38 -117 -41 -53 l-2 27 -4 -27 c-9 -59 -42 -13 -43 60 0 28 20 9 22 -20z
m138 22 c0 -5 -7 -10 -15 -10 -8 0 -15 -4 -15 -10 0 -5 7 -10 15 -10 8 0 15
-4 15 -10 0 -5 -7 -10 -15 -10 -8 0 -15 -4 -15 -10 0 -22 29 -8 38 18 8 21 11
22 11 7 1 -28 -22 -55 -48 -55 -19 0 -21 6 -21 50 0 47 2 50 25 50 14 0 25 -4
25 -10z m70 0 c0 -5 -4 -10 -10 -10 -5 0 -10 -18 -10 -40 0 -22 -4 -40 -10
-40 -5 0 -10 18 -10 40 0 22 -4 40 -10 40 -5 0 -10 5 -10 10 0 6 14 10 30 10
17 0 30 -4 30 -10z m67 -37 c10 -43 7 -76 -4 -45 -3 6 -11 12 -18 12 -7 0 -15
-6 -18 -12 -11 -31 -15 2 -5 45 12 60 32 60 45 0z m61 20 l10 -28 1 28 c2 49
21 28 21 -23 0 -57 -19 -68 -37 -22 l-11 27 -1 -27 c-2 -50 -21 -29 -21 22 0
57 21 69 38 23z m-8814 -104 c-47 -59 -52 -62 -121 -80 -93 -23 -124 -40 -153
-82 -21 -31 -67 -67 -85 -67 -3 0 14 19 38 43 25 23 50 52 56 65 6 12 16 22
22 22 6 0 25 6 42 14 18 8 57 20 88 26 53 10 60 15 104 71 26 33 50 58 52 55
3 -3 -16 -33 -43 -67z m5198 -28 c92 -45 171 -81 175 -81 15 0 53 103 53 143
0 24 5 37 13 37 19 0 7 -81 -21 -144 -22 -49 -22 -66 3 -66 8 0 17 -4 20 -10
10 -16 -20 -3 -228 98 -165 80 -200 94 -207 82 -13 -21 -12 -3 1 22 7 13 14
17 18 10 3 -6 81 -47 173 -91z m3428 -108 c-1 -160 -9 -270 -33 -443 -11 -81
-20 -109 -60 -185 -43 -80 -46 -91 -32 -101 26 -19 16 -78 -12 -82 -21 -3 -23
1 -23 41 0 25 -5 47 -10 49 -6 2 9 35 34 75 58 94 72 137 86 268 7 61 16 142
21 180 4 39 5 118 2 176 -6 109 1 179 17 179 6 0 10 -64 10 -157z m-3003 5
c-2 -29 -3 -8 -3 47 0 55 1 79 3 53 2 -26 2 -71 0 -100z m-142 -46 c-3 -3 -11
0 -18 7 -9 10 -8 11 6 5 10 -3 15 -9 12 -12z m-203 -26 c2 -19 0 -32 -4 -30
-8 5 -12 64 -4 64 2 0 6 -15 8 -34z m48 0 c0 -23 -6 -36 -17 -41 -15 -5 -16
-4 -5 6 6 7 12 26 12 41 0 15 2 28 5 28 3 0 5 -15 5 -34z m365 -11 c0 -14 -3
-25 -7 -25 -4 0 -8 14 -8 32 0 36 13 30 15 -7z m-521 14 c56 -26 53 -105 -4
-129 -80 -33 -135 90 -56 128 28 14 31 14 60 1z m183 -26 c-3 -10 -5 -4 -5 12
0 17 2 24 5 18 2 -7 2 -21 0 -30z m39 22 c10 -26 -1 -35 -13 -10 -6 14 -7 25
-2 25 5 0 12 -7 15 -15z m21 -22 c-3 -10 -5 -4 -5 12 0 17 2 24 5 18 2 -7 2
-21 0 -30z m43 7 c5 0 11 8 13 18 3 12 5 13 6 2 0 -8 -4 -22 -9 -30 -9 -13
-11 -13 -20 0 -5 8 -9 22 -9 30 1 11 3 10 6 -2 2 -10 8 -18 13 -18z m78 13 c2
-8 -5 -13 -18 -13 -14 0 -19 -4 -14 -12 5 -10 4 -10 -6 -1 -7 6 -10 19 -6 28
7 18 37 17 44 -2z m33 3 c-4 -6 -11 -18 -14 -26 -3 -9 -6 -5 -6 11 -1 16 4 26
14 26 9 0 11 -4 6 -11z m63 5 c4 -5 -4 -7 -16 -5 l-23 5 23 -12 c19 -11 31
-29 17 -29 -11 0 -44 34 -39 42 7 11 31 10 38 -1z m23 -28 c-3 -10 -5 -4 -5
12 0 17 2 24 5 18 2 -7 2 -21 0 -30z m101 9 c2 -12 -2 -22 -8 -22 -6 0 -8 5
-5 10 3 6 1 10 -4 10 -6 0 -11 -5 -11 -11 0 -5 -4 -8 -9 -5 -5 3 -7 15 -4 26
7 27 37 22 41 -8z m56 19 c4 -5 -4 -7 -16 -4 -19 4 -20 3 -8 -6 9 -7 10 -11 3
-11 -15 0 -25 15 -16 24 9 9 31 7 37 -3z m6 -31 c0 -5 -5 -10 -11 -10 -5 0 -7
5 -4 10 3 6 8 10 11 10 2 0 4 -4 4 -10z m-4693 -128 c-5 -31 -27 -72 -39 -72
-14 0 -9 19 10 38 9 10 18 24 20 31 4 20 -18 51 -36 51 -12 0 -14 2 -4 8 9 7
8 13 -8 27 -11 10 -20 22 -20 26 0 5 18 -11 41 -36 32 -35 40 -49 36 -73z
m4500 76 c-3 -8 -6 -5 -6 6 -1 11 2 17 5 13 3 -3 4 -12 1 -19z m143 12 c0 -5
-5 -10 -11 -10 -5 0 -7 5 -4 10 3 6 8 10 11 10 2 0 4 -4 4 -10z m-445 -45 c0
-25 -4 -30 -27 -33 -26 -3 -28 -1 -28 33 0 34 2 36 28 33 23 -3 27 -8 27 -33z
m32 -22 c-3 -10 -5 -4 -5 12 0 17 2 24 5 18 2 -7 2 -21 0 -30z m63 12 c0 -16
-6 -25 -15 -25 -8 0 -15 -4 -15 -10 0 -5 -4 -10 -10 -10 -5 0 -10 16 -10 35 0
31 3 35 25 35 20 0 25 -5 25 -25z m33 4 c-4 -16 -2 -20 8 -17 8 3 13 13 12 23
-1 12 2 14 9 7 15 -15 1 -44 -19 -40 -19 3 -32 48 -15 48 6 0 8 -10 5 -21z
m59 -4 c-2 -14 -6 -25 -8 -25 -2 0 -4 11 -4 25 0 14 4 25 9 25 4 0 6 -11 3
-25z m38 0 c0 -14 -2 -25 -4 -25 -2 0 -6 11 -8 25 -3 14 -1 25 3 25 5 0 9 -11
9 -25z m25 15 c-3 -5 1 -10 10 -10 10 0 13 5 9 12 -4 7 -3 8 4 4 17 -10 15
-36 -4 -43 -20 -7 -38 11 -31 31 4 9 9 16 12 16 4 0 3 -4 0 -10z m58 -10 c-3
-13 0 -20 8 -20 11 0 11 -2 -1 -10 -13 -8 -12 -10 4 -10 15 0 17 6 14 30 -3
17 -1 30 4 30 5 0 8 -15 6 -32 -2 -25 -8 -33 -22 -33 -15 0 -21 8 -23 33 -2
17 0 32 6 32 5 0 7 -9 4 -20z m95 -2 c-4 -27 -33 -36 -42 -13 -8 22 1 35 25
35 15 0 20 -6 17 -22z m34 -3 c-2 -14 -6 -25 -8 -25 -2 0 -4 11 -4 25 0 14 4
25 9 25 4 0 6 -11 3 -25z m71 13 c7 -21 -4 -38 -23 -38 -10 0 -20 6 -23 13 -7
20 4 37 23 37 10 0 20 -6 23 -12z m-4780 -13 c-3 -9 -8 -14 -10 -11 -3 3 -2 9
2 15 9 16 15 13 8 -4z m-76 -27 c-3 -7 -5 -2 -5 12 0 14 2 19 5 13 2 -7 2 -19
0 -25z m543 15 c1 -17 1 -17 11 0 15 25 32 22 18 -4 -8 -16 -8 -28 0 -45 12
-28 -3 -33 -18 -6 -10 16 -10 16 -11 0 0 -10 -4 -18 -10 -18 -5 0 -10 20 -10
45 0 25 5 45 10 45 6 0 10 -8 10 -17z m97 -28 c6 -25 7 -45 2 -45 -4 0 -9 6
-12 13 -3 9 -8 8 -22 -3 -17 -14 -18 -13 -12 19 4 18 7 40 7 47 0 8 6 14 13
14 8 0 18 -19 24 -45z m49 -25 c8 0 14 -4 14 -10 0 -5 -9 -10 -20 -10 -17 0
-20 6 -18 48 1 43 2 44 5 10 3 -25 9 -38 19 -38z m44 25 c0 -25 -4 -45 -10
-45 -5 0 -10 20 -10 45 0 25 5 45 10 45 6 0 10 -20 10 -45z m61 38 c8 -58 3
-78 -18 -81 -21 -3 -23 1 -23 42 0 39 3 46 20 46 11 0 20 -3 21 -7z m66 -38
c6 -25 7 -45 2 -45 -4 0 -9 6 -12 13 -3 9 -8 8 -22 -3 -17 -14 -18 -13 -12 19
4 18 7 40 7 47 0 8 6 14 13 14 8 0 18 -19 24 -45z m50 18 l7 -28 7 30 c6 26 7
23 8 -17 0 -27 -3 -48 -9 -48 -5 0 -10 6 -11 13 0 10 -2 10 -6 0 -11 -28 -23
-11 -23 32 0 50 16 60 27 18z m79 11 c-3 -9 -6 -29 -6 -45 0 -16 -4 -29 -10
-29 -5 0 -10 16 -10 35 0 19 -4 35 -10 35 -5 0 -10 5 -10 10 0 6 12 10 26 10
20 0 25 -4 20 -16z m64 6 c0 -5 -7 -10 -15 -10 -21 0 -19 -20 3 -21 16 -1 16
-2 0 -6 -22 -5 -24 -23 -3 -23 8 0 15 -4 15 -10 0 -5 -9 -10 -20 -10 -17 0
-20 7 -20 45 0 38 3 45 20 45 11 0 20 -4 20 -10z m41 -7 c1 -17 2 -17 6 0 9
33 23 16 23 -28 0 -48 -14 -60 -26 -22 l-8 22 -7 -25 c-5 -19 -7 -14 -8 23 -1
26 4 47 9 47 6 0 11 -8 11 -17z m93 1 c4 -12 1 -14 -14 -9 -16 5 -20 2 -20
-19 0 -14 4 -26 10 -26 5 0 7 7 4 15 -4 9 0 15 10 15 21 0 21 -39 1 -46 -21
-8 -45 14 -45 40 0 39 42 63 54 30z m3756 -6 c10 -6 7 -7 -10 -2 -14 3 -32 11
-40 16 -10 6 -7 7 10 2 14 -3 32 -11 40 -16z m-160 -35 c0 -25 -19 -237 -26
-300 -4 -38 -11 -53 -21 -53 -11 0 -13 5 -8 18 13 30 24 109 31 232 4 66 11
120 15 120 5 0 9 -8 9 -17z m-4800 -40 c-11 -17 -11 -17 -6 0 3 10 6 24 7 30
0 9 2 9 5 0 3 -7 0 -20 -6 -30z m4667 -60 c-2 -21 -4 -6 -4 32 0 39 2 55 4 38
2 -18 2 -50 0 -70z m-3904 20 c3 9 11 17 17 17 8 0 8 -6 0 -20 -8 -14 -8 -26
0 -40 6 -12 7 -20 1 -20 -5 0 -12 6 -14 13 -4 9 -8 8 -16 -3 -8 -11 -11 -4
-10 30 0 31 3 39 8 26 7 -18 8 -18 14 -3z m57 -23 c0 -22 -4 -40 -10 -40 -5 0
-10 18 -10 40 0 22 5 40 10 40 6 0 10 -18 10 -40z m65 0 c0 -31 -3 -35 -27
-38 -27 -3 -28 -1 -28 38 0 39 1 41 28 38 24 -3 27 -7 27 -38z m35 5 c0 -19 5
-35 10 -35 6 0 10 16 10 35 0 19 5 35 11 35 6 0 9 -16 7 -37 -3 -33 -6 -38
-28 -38 -22 0 -25 5 -28 38 -2 21 1 37 7 37 6 0 11 -16 11 -35z m70 1 c0 -24
5 -36 18 -39 10 -3 6 -5 -10 -6 -26 -1 -28 2 -28 39 0 22 5 40 10 40 6 0 10
-15 10 -34z m-910 4 c0 -5 -18 -19 -40 -30 -25 -13 -38 -25 -34 -32 5 -8 2 -9
-9 -5 -10 3 -17 2 -17 -3 0 -11 -79 -34 -88 -25 -3 3 2 13 13 23 10 9 15 11
11 5 -4 -7 -5 -13 -1 -13 10 0 119 57 140 74 24 18 25 19 25 6z m5983 -97
c-64 -96 -95 -130 -72 -79 7 14 16 26 21 26 4 0 8 6 8 13 1 20 69 121 88 129
9 4 18 7 18 7 1 1 -28 -43 -63 -96z m127 87 c-36 -11 -50 -11 -50 0 0 6 17 10
38 9 33 -1 34 -2 12 -9z m-6239 -33 l-24 -22 19 27 c10 14 21 24 23 22 3 -3
-6 -15 -18 -27z m6390 6 c13 -17 13 -17 -6 -3 -11 8 -22 16 -24 17 -2 2 0 3 6
3 6 0 17 -8 24 -17z m-1601 -189 c0 -20 -71 -17 -155 6 -48 13 -103 20 -172
20 -62 0 -103 4 -103 10 0 6 15 10 33 11 111 2 198 -4 237 -17 50 -18 150 -31
150 -20 0 4 -8 23 -19 44 -10 20 -21 48 -25 62 -4 14 7 -4 24 -39 16 -35 30
-70 30 -77z m1630 84 c-11 -39 -37 -69 -37 -43 0 8 4 12 8 9 10 -6 30 66 22
80 -4 8 -2 8 5 1 8 -8 9 -21 2 -47z m-2547 -45 c-8 -2 -13 -22 -13 -44 0 -36
-14 -53 -22 -27 -3 8 -9 8 -23 1 -11 -7 -30 -7 -48 -2 -21 6 -50 3 -97 -10
-104 -29 -111 -35 -98 -74 6 -17 17 -41 24 -52 11 -17 64 -254 64 -285 0 -5
-7 -10 -16 -10 -8 0 -13 4 -10 8 9 15 -43 247 -68 305 -14 32 -26 62 -26 67 0
32 182 88 230 71 35 -12 74 11 67 40 -4 15 0 19 21 18 15 0 21 -3 15 -6z m55
0 c-21 -5 -23 -19 -5 -27 10 -5 10 -7 0 -12 -18 -8 -16 -24 3 -24 8 0 12 -4 9
-10 -3 -5 -15 -10 -26 -10 -16 0 -19 7 -19 45 0 43 1 45 28 44 16 -1 20 -3 10
-6z m72 -9 c0 -13 -3 -14 -14 -5 -10 9 -15 8 -20 -4 -7 -20 3 -47 16 -39 6 4
5 10 -3 15 -10 6 -8 9 8 9 17 0 21 -4 16 -17 -16 -44 -53 -36 -53 11 0 18 3
36 7 39 13 13 43 7 43 -9z m116 -54 c8 0 14 -4 14 -10 0 -5 8 -10 18 -9 10 0
12 3 5 6 -7 2 -13 9 -13 15 0 6 7 8 15 4 8 -3 15 -1 15 3 0 5 -7 11 -15 15
-20 7 -19 35 1 43 17 6 42 -13 30 -24 -4 -4 -11 -1 -16 7 -7 11 -10 11 -10 2
0 -7 7 -15 15 -18 17 -7 21 -44 5 -44 -25 0 -5 -37 62 -116 39 -47 83 -91 98
-99 71 -37 265 -61 333 -42 20 5 27 4 27 -7 0 -21 -97 -29 -185 -16 -59 9 -79
9 -91 0 -11 -10 -14 -9 -14 4 0 9 -12 18 -27 22 -51 12 -91 44 -160 127 -37
45 -74 90 -83 100 -8 9 -22 17 -32 17 -15 0 -18 8 -16 48 1 43 2 44 5 10 3
-25 9 -38 19 -38z m134 29 c12 -43 6 -64 -11 -39 -8 13 -10 13 -18 0 -6 -8
-13 -12 -16 -8 -9 9 14 88 25 88 5 0 14 -18 20 -41z m68 -6 c-1 -42 -2 -45
-14 -28 -12 17 -14 17 -14 2 0 -9 -4 -17 -10 -17 -5 0 -10 20 -10 45 0 41 2
45 25 45 22 0 24 -3 23 -47z m32 1 c0 -27 -4 -43 -10 -39 -5 3 -10 24 -10 46
0 21 5 39 10 39 6 0 10 -21 10 -46z m-216 -5 c-10 -16 -24 -9 -24 12 0 18 2
19 15 9 8 -7 12 -16 9 -21z m1896 7 c0 -3 -4 -8 -10 -11 -5 -3 -10 -1 -10 4 0
6 5 11 10 11 6 0 10 -2 10 -4z m-25 -36 c-3 -5 -11 -10 -16 -10 -6 0 -7 5 -4
10 3 6 11 10 16 10 6 0 7 -4 4 -10z m-1287 -38 c2 -13 -3 -25 -12 -28 -9 -3
-16 -12 -16 -20 0 -8 -4 -14 -10 -14 -5 0 -10 21 -10 46 0 41 2 45 23 42 14
-2 23 -11 25 -26z m182 18 c0 -5 -7 -10 -15 -10 -21 0 -19 -20 3 -21 16 -1 16
-2 0 -6 -22 -5 -24 -23 -3 -23 8 0 15 -4 15 -10 0 -5 -11 -10 -25 -10 -23 0
-25 4 -25 45 0 41 2 45 25 45 14 0 25 -4 25 -10z m56 -26 c1 -17 4 -36 8 -43
4 -6 3 -11 -3 -11 -5 0 -15 8 -20 18 -10 16 -10 16 -11 0 0 -10 -4 -18 -10
-18 -5 0 -10 21 -10 46 0 41 2 45 23 42 17 -2 22 -10 23 -34z m69 -9 c0 -33
-4 -40 -19 -40 -23 0 -36 33 -25 63 15 40 44 24 44 -23z m46 28 c1 -17 2 -17
6 0 9 33 23 16 23 -28 0 -48 -14 -60 -26 -22 l-8 22 -7 -25 c-5 -19 -7 -14 -8
23 -1 26 4 47 9 47 6 0 11 -8 11 -17z m97 -2 c3 -9 -2 -11 -17 -6 -18 5 -21 2
-21 -19 0 -14 5 -26 11 -26 6 0 9 7 5 15 -3 9 0 15 9 15 17 0 19 -18 6 -39
-11 -16 -39 -8 -47 14 -4 8 -3 27 0 41 5 19 12 24 28 22 12 -2 23 -9 26 -17z
m55 2 c14 -51 16 -73 8 -73 -5 0 -12 6 -14 13 -4 9 -8 8 -16 -3 -17 -24 -23
-4 -11 39 11 43 25 53 33 24z m57 -5 l9 -23 0 23 c2 43 21 22 21 -23 0 -47
-12 -58 -29 -27 -10 16 -10 16 -11 0 0 -10 -4 -18 -10 -18 -5 0 -10 20 -10 45
0 48 15 59 30 23z m705 2 c-3 -5 -11 -10 -16 -10 -6 0 -7 5 -4 10 3 6 11 10
16 10 6 0 7 -4 4 -10z m1495 -115 c15 -18 6 -45 -14 -45 -8 0 -17 -8 -19 -17
-3 -10 -5 3 -6 30 -1 49 14 62 39 32z m65 5 c3 -5 -1 -10 -9 -10 -9 0 -16 -4
-16 -10 0 -5 4 -10 9 -10 5 0 12 -7 15 -16 4 -12 2 -15 -9 -10 -8 3 -15 1 -15
-4 0 -5 8 -11 18 -13 10 -3 6 -5 -10 -6 -27 -1 -28 1 -28 44 0 38 3 45 19 45
11 0 23 -4 26 -10z m108 -40 c4 -33 4 -33 5 8 1 23 7 42 13 42 6 0 9 -17 7
-42 -2 -35 -7 -43 -23 -43 -17 0 -21 8 -23 45 -4 53 14 45 21 -10z m84 38 c10
-17 10 -78 0 -78 -4 0 -11 8 -14 17 -6 15 -7 15 -14 -3 -5 -13 -8 -4 -8 29 -1
35 3 47 13 47 8 0 18 -6 23 -12z m43 -30 c0 -50 16 -41 23 12 3 29 4 27 5 -13
2 -45 0 -48 -20 -45 -19 2 -24 10 -26 46 -2 25 1 42 7 42 6 0 11 -19 11 -42z
m77 15 l7 -28 7 30 c6 26 7 23 8 -17 0 -27 -3 -48 -9 -48 -5 0 -10 6 -11 13 0
10 -2 10 -6 0 -11 -28 -23 -11 -23 32 0 50 16 60 27 18z m81 18 c8 -5 12 -22
10 -42 -2 -26 -8 -35 -24 -37 -26 -4 -40 38 -24 68 12 22 18 24 38 11z m72
-32 c12 -43 6 -64 -11 -39 -8 13 -10 13 -18 0 -6 -8 -12 -12 -15 -9 -8 7 15
89 25 89 4 0 13 -18 19 -41z m50 19 l9 -23 0 23 c2 43 21 22 21 -23 0 -47 -12
-58 -29 -27 -10 16 -10 16 -11 0 0 -10 -4 -18 -10 -18 -5 0 -10 20 -10 45 0
48 15 59 30 23z m-4851 -90 c14 -24 13 -29 -12 -67 -26 -39 -30 -41 -77 -41
-46 0 -51 3 -75 37 -29 44 -30 51 -9 81 14 21 23 23 87 20 65 -3 73 -5 86 -30z
m4404 -15 c-7 -2 -14 -23 -15 -46 l-1 -42 -4 40 c-3 22 -10 43 -16 47 -7 4 1
7 18 7 17 0 24 -3 18 -6z m55 0 c-22 -5 -24 -23 -3 -23 8 0 15 -4 15 -10 0 -5
-7 -10 -15 -10 -8 0 -15 -4 -15 -10 0 -5 7 -10 15 -10 8 0 15 -4 15 -10 0 -5
-11 -10 -25 -10 -23 0 -25 4 -25 45 0 43 1 45 28 44 16 -1 20 -3 10 -6z m51
-10 c10 -17 10 -17 11 0 0 9 5 17 10 17 6 0 10 -20 10 -45 0 -48 -15 -59 -30
-22 l-9 22 0 -22 c-2 -44 -21 -23 -21 22 0 47 12 58 29 28z m95 2 c7 -18 -5
-20 -22 -3 -9 9 -12 8 -12 -5 0 -10 8 -17 20 -17 24 0 25 -9 6 -35 -12 -16
-16 -17 -30 -6 -16 13 -22 62 -9 74 12 12 41 7 47 -8z m63 -30 c6 -25 7 -45 2
-45 -4 0 -9 6 -12 13 -3 9 -7 9 -20 -2 -20 -16 -22 -6 -11 48 9 45 29 38 41
-14z m43 30 c0 -21 18 -19 23 3 3 9 5 -5 4 -33 0 -27 -2 -40 -4 -27 -5 24 -23
31 -23 8 0 -8 -4 -18 -10 -21 -6 -4 -10 12 -10 39 0 25 5 46 10 46 6 0 10 -7
10 -15z m-3501 -77 c-6 -22 -18 -53 -27 -67 -42 -62 -52 -100 -52 -196 0 -51
-4 -96 -9 -99 -5 -3 -36 19 -70 49 -58 51 -65 55 -113 55 -28 0 -125 7 -215
16 l-165 15 -44 45 c-25 24 -49 44 -54 44 -6 0 -10 6 -10 14 0 12 4 12 30 0
17 -9 30 -19 30 -24 0 -4 16 -20 35 -34 33 -25 46 -28 251 -45 l216 -19 42
-41 c23 -22 45 -41 49 -41 4 0 7 38 7 84 0 79 3 90 40 163 22 43 40 88 40 101
0 12 6 22 14 22 11 0 12 -8 5 -42z m2711 -965 c1 -17 1 -17 11 0 16 27 30 20
17 -8 -8 -19 -8 -31 0 -50 13 -28 -1 -35 -17 -7 -10 16 -10 16 -11 0 0 -10 -4
-18 -10 -18 -5 0 -10 23 -10 50 0 28 5 50 10 50 6 0 10 -8 10 -17z m100 7 c0
-5 -7 -10 -15 -10 -8 0 -15 -4 -15 -10 0 -5 7 -10 15 -10 8 0 15 -4 15 -10 0
-5 -7 -10 -15 -10 -21 0 -19 -28 3 -33 10 -3 6 -5 -10 -6 -27 -1 -28 1 -28 49
0 47 2 50 25 50 14 0 25 -4 25 -10z m68 1 c8 -5 12 -23 10 -47 -3 -34 -6 -39
-30 -42 -27 -3 -28 -2 -28 47 0 42 3 51 18 51 9 0 23 -4 30 -9z m52 -31 c0
-22 5 -40 10 -40 6 0 10 18 10 40 0 22 5 40 11 40 6 0 9 -19 7 -47 -3 -44 -5
-48 -28 -48 -23 0 -25 4 -28 48 -2 28 1 47 7 47 6 0 11 -18 11 -40z m90 18 l9
-23 0 23 c2 46 21 20 21 -28 0 -53 -14 -66 -30 -27 l-9 22 0 -22 c-2 -47 -21
-21 -21 27 0 53 14 66 30 28z m158 -6 c4 -27 22 -19 22 9 0 10 7 19 15 19 11
0 15 -12 15 -50 0 -27 -4 -50 -10 -50 -5 0 -11 8 -11 18 -1 16 -2 16 -6 0 -5
-21 -23 -24 -24 -5 0 10 -2 10 -6 0 -11 -29 -23 -10 -23 38 0 36 4 49 13 47 6
-3 13 -14 15 -26z m82 -11 c0 -22 5 -43 10 -46 6 -4 10 10 10 34 0 42 16 64
26 37 3 -9 3 -32 0 -51 -6 -28 -11 -35 -30 -35 -13 0 -27 7 -30 16 -10 25 -7
84 4 84 6 0 10 -18 10 -39z m98 7 l10 -33 1 33 c2 53 21 36 21 -18 0 -55 -18
-68 -38 -27 l-11 22 0 -22 c-2 -47 -21 -21 -21 27 0 59 21 69 38 18z m88 24
c35 -24 20 -92 -21 -92 -23 0 -25 3 -25 50 0 41 3 50 18 50 9 0 22 -4 28 -8z
m54 -32 c0 -22 5 -40 10 -40 6 0 10 18 10 40 0 22 5 40 11 40 6 0 9 -19 7 -47
-3 -44 -5 -48 -28 -48 -23 0 -25 4 -28 48 -2 28 1 47 7 47 6 0 11 -18 11 -40z
m-2511 -12 c14 -24 13 -29 -12 -67 -26 -39 -30 -41 -77 -41 -46 0 -51 3 -75
37 -29 44 -30 51 -9 81 14 21 23 23 87 20 65 -3 73 -5 86 -30z m-2534 -413 l0
-70 -100 0 -100 0 -3 59 c-5 89 -7 87 105 84 l98 -3 0 -70z m-68 -141 c58 -89
76 -107 140 -136 34 -15 69 -28 76 -28 7 0 22 -7 33 -15 18 -14 16 -14 -16 -8
-108 19 -191 73 -237 154 -11 20 -29 48 -39 64 -14 22 -15 27 -4 23 8 -2 29
-26 47 -54z m2027 -182 c16 -49 -70 -141 -121 -130 -12 3 -4 9 24 16 29 9 48
22 62 46 25 39 27 84 6 92 -8 4 -13 10 -10 14 3 4 -2 13 -10 20 -8 7 -15 17
-15 22 0 15 57 -55 64 -80z m-57 42 c-3 -3 -12 -4 -19 -1 -8 3 -5 6 6 6 11 1
17 -2 13 -5z m-145 -114 c-20 -19 -42 -30 -60 -29 -25 1 -25 2 7 9 18 4 43 17
54 29 12 12 24 21 27 21 3 0 -10 -14 -28 -30z m-37 -48 l50 -6 -75 -6 c-76 -6
-98 -1 -85 20 5 7 17 9 34 5 14 -4 49 -10 76 -13z m-14 -49 c13 -17 13 -17 -6
-3 -11 8 -22 16 -24 17 -2 2 0 3 6 3 6 0 17 -8 24 -17z m49 -38 c13 -14 21
-25 18 -25 -2 0 -15 11 -28 25 -13 14 -21 25 -18 25 2 0 15 -11 28 -25z"/>
<path d="M9300 3320 c0 -16 5 -30 10 -30 6 0 10 14 10 30 0 17 -4 30 -10 30
-5 0 -10 -13 -10 -30z"/>
<path d="M2643 5153 c9 -2 25 -2 35 0 9 3 1 5 -18 5 -19 0 -27 -2 -17 -5z"/>
<path d="M2563 5143 c9 -2 25 -2 35 0 9 3 1 5 -18 5 -19 0 -27 -2 -17 -5z"/>
<path d="M2488 5133 c6 -2 18 -2 25 0 6 3 1 5 -13 5 -14 0 -19 -2 -12 -5z"/>
<path d="M3990 3866 c14 -7 29 -11 34 -8 12 6 -15 22 -39 22 -17 0 -17 -2 5
-14z"/>
<path d="M4113 3853 c9 -2 23 -2 30 0 6 3 -1 5 -18 5 -16 0 -22 -2 -12 -5z"/>
<path d="M4100 3812 c0 -20 23 -31 43 -20 16 8 17 12 6 19 -18 11 -49 12 -49
1z"/>
<path d="M4810 3810 c-12 -7 -12 -12 -3 -21 9 -9 16 -9 28 1 29 24 9 42 -25
20z"/>
<path d="M4604 3645 c-7 -18 3 -35 22 -35 20 0 30 30 13 41 -20 12 -29 11 -35
-6z"/>
<path d="M2620 5415 c0 -8 5 -15 10 -15 6 0 10 7 10 15 0 8 -4 15 -10 15 -5 0
-10 -7 -10 -15z"/>
<path d="M2870 5392 c-18 -14 -21 -24 -15 -43 8 -23 8 -23 16 -4 5 14 8 15 8
5 1 -9 -4 -21 -11 -28 -9 -9 -4 -12 25 -12 20 0 36 3 35 8 0 4 2 15 7 25 7 18
-17 67 -34 67 -5 0 -19 -8 -31 -18z m20 -12 c0 -5 -5 -10 -11 -10 -5 0 -7 5
-4 10 3 6 8 10 11 10 2 0 4 -4 4 -10z m30 -10 c0 -5 -2 -10 -4 -10 -3 0 -8 5
-11 10 -3 6 -1 10 4 10 6 0 11 -4 11 -10z m-23 -42 c-3 -8 -6 -5 -6 6 -1 11 2
17 5 13 3 -3 4 -12 1 -19z"/>
<path d="M2358 5283 c7 -3 16 -2 19 1 4 3 -2 6 -13 5 -11 0 -14 -3 -6 -6z"/>
<path d="M2510 5295 c0 -8 5 -15 10 -15 6 0 10 7 10 15 0 8 -4 15 -10 15 -5 0
-10 -7 -10 -15z"/>
<path d="M2627 5304 c-8 -8 1 -24 14 -24 5 0 9 7 9 15 0 15 -12 20 -23 9z"/>
<path d="M2747 5304 c-8 -8 1 -24 14 -24 5 0 9 7 9 15 0 15 -12 20 -23 9z"/>
<path d="M2295 5090 c-3 -5 1 -10 10 -10 9 0 13 5 10 10 -3 6 -8 10 -10 10 -2
0 -7 -4 -10 -10z"/>
<path d="M2480 5090 c0 -5 5 -10 11 -10 5 0 7 5 4 10 -3 6 -8 10 -11 10 -2 0
-4 -4 -4 -10z"/>
<path d="M6050 4970 c0 -5 5 -10 10 -10 6 0 10 5 10 10 0 6 -4 10 -10 10 -5 0
-10 -4 -10 -10z"/>
<path d="M8450 4990 c0 -5 5 -10 10 -10 6 0 10 5 10 10 0 6 -4 10 -10 10 -5 0
-10 -4 -10 -10z"/>
<path d="M8970 5026 c0 -9 5 -16 10 -16 6 0 10 4 10 9 0 6 -4 13 -10 16 -5 3
-10 -1 -10 -9z"/>
<path d="M2245 4990 c-3 -5 -1 -10 4 -10 6 0 11 5 11 10 0 6 -2 10 -4 10 -3 0
-8 -4 -11 -10z"/>
<path d="M2520 4975 c0 -8 7 -15 15 -15 8 0 15 7 15 15 0 8 -7 15 -15 15 -8 0
-15 -7 -15 -15z"/>
<path d="M2121 4967 c-6 -8 -24 -12 -43 -10 -30 4 -31 3 -15 -10 21 -17 22
-27 2 -27 -18 0 -19 -12 -3 -28 16 -16 28 -15 28 3 0 20 10 19 27 -2 13 -16
14 -15 10 15 -2 19 2 37 10 43 15 13 17 29 4 29 -5 0 -14 -6 -20 -13z"/>
<path d="M5280 4965 c0 -14 5 -25 10 -25 6 0 10 11 10 25 0 14 -4 25 -10 25
-5 0 -10 -11 -10 -25z"/>
<path d="M5410 4965 c0 -14 5 -25 10 -25 6 0 10 11 10 25 0 14 -4 25 -10 25
-5 0 -10 -11 -10 -25z"/>
<path d="M5551 4974 c0 -11 3 -14 6 -6 3 7 2 16 -1 19 -3 4 -6 -2 -5 -13z"/>
<path d="M5740 4980 c0 -5 5 -10 10 -10 6 0 10 5 10 10 0 6 -4 10 -10 10 -5 0
-10 -4 -10 -10z"/>
<path d="M6230 4955 c0 -14 5 -25 10 -25 6 0 10 11 10 25 0 14 -4 25 -10 25
-5 0 -10 -11 -10 -25z"/>
<path d="M6570 4955 c0 -14 5 -25 10 -25 6 0 10 11 10 25 0 14 -4 25 -10 25
-5 0 -10 -11 -10 -25z"/>
<path d="M2530 4859 c0 -5 5 -7 10 -4 6 3 10 8 10 11 0 2 -4 4 -10 4 -5 0 -10
-5 -10 -11z"/>
<path d="M2652 4876 c1 -10 8 -17 13 -17 15 1 12 24 -3 29 -9 3 -13 -2 -10
-12z"/>
<path d="M2780 4859 c0 -5 5 -7 10 -4 6 3 10 8 10 11 0 2 -4 4 -10 4 -5 0 -10
-5 -10 -11z"/>
<path d="M6065 4802 c-22 -10 -91 -24 -154 -31 -63 -6 -128 -18 -145 -25 -36
-16 -150 -131 -160 -163 -4 -12 -2 -31 4 -43 13 -25 -5 -28 -19 -2 -10 16 -10
16 -11 0 0 -10 -5 -18 -11 -18 -7 0 -10 20 -9 53 2 28 2 58 1 65 -2 20 -66 5
-134 -31 l-59 -31 6 -45 c14 -100 18 -121 25 -121 4 0 39 34 76 76 39 43 71
71 73 64 3 -7 -30 -47 -72 -89 l-77 -77 36 -180 c20 -98 38 -188 40 -199 3
-11 14 -72 25 -135 12 -63 25 -132 30 -152 4 -21 4 -38 0 -38 -14 0 -20 15
-35 102 -9 46 -24 126 -34 178 -11 52 -31 158 -45 235 -15 77 -29 146 -32 154
-6 17 -28 -3 -155 -140 l-88 -96 19 -50 c10 -28 22 -74 26 -102 6 -45 9 -51
30 -51 23 0 24 -2 24 -88 0 -53 -5 -93 -11 -99 -11 -11 -14 -171 -4 -181 1 -2
65 -9 141 -16 115 -11 180 -11 374 0 129 7 292 16 362 19 l128 7 -5 121 c-3
67 -10 223 -15 347 -5 124 -12 317 -15 430 -4 112 -8 207 -11 209 -3 3 -42 -7
-87 -22 -45 -16 -92 -29 -104 -30 -20 -1 -23 -7 -23 -44 0 -46 -15 -57 -30
-20 l-9 22 0 -22 c-1 -34 -21 -28 -21 6 0 17 -5 33 -11 36 -7 5 -8 -5 -4 -29
7 -35 -6 -51 -19 -23 -5 10 -7 10 -12 0 -10 -23 -19 -14 -20 22 0 18 3 32 8
29 4 -3 8 2 8 10 0 8 8 14 18 14 18 -1 187 43 233 60 15 6 28 19 31 29 5 20
-21 123 -31 123 -3 0 -24 -9 -46 -18z m-394 -214 l0 -23 11 23 c16 32 28 27
28 -13 0 -19 5 -35 10 -35 6 0 10 16 10 35 0 19 5 35 11 35 6 0 9 -17 7 -42
-2 -35 -7 -44 -24 -46 -13 -2 -24 5 -32 20 l-11 23 0 -24 c-1 -18 -4 -21 -14
-12 -10 8 -17 7 -27 -2 -10 -10 -11 -6 -6 22 3 18 6 40 6 47 0 24 30 16 31 -8z
m122 0 l4 -23 8 23 c12 38 25 24 24 -25 -1 -39 -2 -43 -9 -23 -8 24 -8 24 -9
3 -1 -24 -20 -33 -22 -10 0 10 -2 10 -6 0 -11 -28 -23 -11 -23 32 0 32 4 45
14 45 8 0 17 -10 19 -22z m-163 -3 c0 -8 -4 -15 -10 -15 -5 0 -7 7 -4 15 4 8
8 15 10 15 2 0 4 -7 4 -15z m-120 -522 c1 -17 1 -17 11 0 15 25 32 22 18 -4
-8 -16 -8 -28 0 -45 12 -28 -3 -33 -18 -6 -10 16 -10 16 -11 0 0 -10 -4 -18
-10 -18 -5 0 -10 20 -10 45 0 25 5 45 10 45 6 0 10 -8 10 -17z m96 -30 c0 -24
-3 -43 -8 -43 -4 0 -8 6 -9 13 0 10 -2 10 -6 0 -11 -28 -23 -10 -23 33 0 41 2
45 23 42 19 -3 22 -9 23 -45z m64 6 c12 -43 6 -64 -11 -39 -8 13 -10 13 -18 0
-6 -8 -13 -12 -16 -8 -9 9 14 88 25 88 5 0 14 -18 20 -41z m50 19 l9 -23 0 23
c2 43 21 22 21 -23 0 -47 -12 -58 -29 -27 -10 16 -10 16 -11 0 0 -10 -4 -18
-10 -18 -5 0 -10 20 -10 45 0 48 15 59 30 23z m88 3 c3 -9 0 -11 -8 -6 -7 4
-16 2 -20 -5 -10 -16 -2 -40 12 -40 6 0 5 6 -2 15 -10 13 -9 15 9 15 24 0 26
-9 7 -35 -20 -28 -46 -12 -46 28 0 19 3 37 7 41 11 10 36 3 41 -13z m70 0 c3
-10 0 -12 -12 -8 -21 8 -34 -19 -17 -36 9 -9 11 -8 6 6 -5 12 -2 17 10 17 11
0 15 -7 13 -22 -5 -35 -42 -31 -46 5 -2 16 -1 35 2 44 7 18 37 14 44 -6z m65
-25 c10 -40 2 -60 -14 -36 -8 13 -10 13 -18 0 -15 -23 -18 -9 -9 38 11 52 29
51 41 -2z m48 27 c1 -17 2 -17 6 0 9 33 23 16 23 -28 0 -49 -11 -58 -28 -22
l-11 22 0 -22 c-2 -44 -21 -23 -21 22 0 33 4 45 15 45 8 0 16 -8 16 -17z
m-425 -414 c36 -30 19 -106 -27 -121 -58 -19 -110 33 -91 91 15 45 80 62 118
30z m94 -54 c0 -19 -4 -35 -10 -35 -5 0 -10 16 -10 35 0 19 5 35 10 35 6 0 10
-16 10 -35z m94 -5 c1 -16 -2 -30 -5 -30 -8 0 -17 58 -11 65 9 9 15 -4 16 -35z
m276 5 c0 -31 -3 -35 -25 -35 -22 0 -25 4 -25 35 0 31 3 35 25 35 22 0 25 -4
25 -35z m152 -11 c-6 -35 -12 -29 -12 14 0 23 3 32 9 24 4 -7 6 -24 3 -38z
m-466 24 c5 -8 2 -9 -9 -5 -10 3 -17 2 -17 -3 0 -6 7 -10 15 -10 8 0 15 -5 15
-10 0 -16 -30 -24 -43 -11 -8 8 -8 11 2 11 10 0 11 3 2 13 -6 8 -8 17 -4 20
10 11 31 8 39 -5z m102 -21 c3 -23 0 -27 -22 -27 -16 0 -26 6 -26 15 0 8 5 15
11 15 5 0 7 -4 4 -10 -3 -5 -2 -10 4 -10 5 0 9 9 8 19 -1 12 -6 17 -16 13 -9
-4 -12 -1 -7 7 13 21 41 8 44 -22z m60 1 c2 -16 -1 -28 -7 -28 -6 0 -11 12
-11 27 0 29 -15 22 -23 -12 -3 -13 -5 -10 -6 11 -1 26 3 31 22 30 16 -1 23 -8
25 -28z m60 -1 c3 -23 0 -27 -22 -27 -16 0 -26 6 -26 15 0 8 5 15 11 15 5 0 7
-4 4 -10 -3 -5 -2 -10 4 -10 5 0 9 9 8 19 -1 12 -6 17 -16 13 -9 -4 -12 -1 -7
7 13 21 41 8 44 -22z m133 -17 c5 0 9 11 9 25 0 14 5 25 10 25 6 0 10 -13 10
-30 0 -25 -4 -30 -25 -30 -22 0 -25 4 -24 33 2 30 2 30 6 5 2 -16 9 -28 14
-28z m77 38 c22 -22 14 -48 -13 -48 -22 0 -25 4 -21 28 2 15 5 28 5 30 2 6 18
1 29 -10z m66 -4 c9 -23 7 -44 -3 -44 -5 0 -11 14 -13 30 -5 32 6 41 16 14z"/>
<path d="M5483 3626 c3 -8 0 -16 -7 -18 -10 -2 -11 -10 -5 -25 6 -18 16 -23
44 -23 28 0 38 5 44 23 6 15 5 23 -5 25 -7 2 -10 10 -7 18 3 8 0 14 -6 14 -6
0 -11 -7 -11 -15 0 -8 -7 -15 -15 -15 -8 0 -15 7 -15 15 0 8 -5 15 -11 15 -6
0 -9 -6 -6 -14z"/>
<path d="M5998 3613 c7 -3 16 -2 19 1 4 3 -2 6 -13 5 -11 0 -14 -3 -6 -6z"/>
<path d="M5990 3580 c0 -5 7 -10 15 -10 8 0 15 5 15 10 0 6 -7 10 -15 10 -8 0
-15 -4 -15 -10z"/>
<path d="M6125 3580 c-3 -5 -1 -10 4 -10 6 0 11 5 11 10 0 6 -2 10 -4 10 -3 0
-8 -4 -11 -10z"/>
<path d="M5575 4791 c-26 -6 -30 -10 -26 -36 1 -17 10 -43 18 -59 8 -16 15
-49 16 -73 0 -35 2 -41 10 -26 5 10 30 40 56 68 25 27 39 44 32 37 -8 -6 -26
-12 -40 -12 -22 1 -19 3 13 15 22 8 43 12 47 9 11 -6 19 10 11 23 -15 23 -107
59 -137 54z"/>
<path d="M5936 4595 c4 -8 8 -15 10 -15 2 0 4 7 4 15 0 8 -4 15 -10 15 -5 0
-7 -7 -4 -15z"/>
<path d="M5215 4503 c-171 -85 -175 -87 -168 -115 3 -13 16 -34 28 -48 13 -15
29 -57 40 -107 10 -46 23 -83 29 -83 6 0 61 53 123 118 l111 118 -9 45 c-5 24
-12 65 -16 90 l-8 47 -130 -65z"/>
<path d="M5100 4090 c-8 -5 -12 -11 -9 -14 3 -3 14 1 25 9 21 16 8 20 -16 5z"/>
<path d="M5145 3864 c-17 -17 -17 -20 -9 -51 4 -16 14 -23 30 -23 21 0 24 5
24 39 0 44 -20 59 -45 35z"/>
<path d="M5160 3750 c-22 -6 -23 -8 -7 -15 12 -5 24 -2 35 9 17 17 12 18 -28
6z"/>
<path d="M4983 3423 c-32 -4 -32 -4 -26 -51 9 -68 8 -278 -1 -342 l-8 -55 83
0 c46 -1 118 -5 160 -9 110 -12 119 -8 158 71 32 67 32 69 19 123 -14 55 -15
55 -69 73 -63 20 -144 97 -140 133 2 18 -7 24 -60 39 -83 23 -79 22 -116 18z"/>
<path d="M5204 3356 c-3 -8 5 -30 18 -50 18 -28 35 -39 77 -51 29 -9 54 -15
56 -13 1 2 7 13 14 25 10 19 7 24 -22 41 -17 11 -56 30 -85 41 -43 17 -54 19
-58 7z"/>
<path d="M5561 3244 c0 -11 3 -14 6 -6 3 7 2 16 -1 19 -3 4 -6 -2 -5 -13z"/>
<path d="M5760 3228 c0 -36 12 -31 16 7 1 14 -2 25 -7 25 -5 0 -9 -14 -9 -32z"/>
<path d="M5367 3025 c-9 -20 -17 -37 -17 -39 0 -2 16 1 35 7 36 11 45 33 23
55 -18 18 -23 15 -41 -23z"/>
<path d="M5345 2958 c-49 -16 -74 -19 -135 -14 -162 14 -246 17 -258 8 -18
-12 -6 -109 18 -150 33 -54 157 -105 311 -127 l45 -7 29 69 c16 37 49 103 73
145 24 43 41 82 37 88 -9 15 -53 11 -120 -12z"/>
<path d="M4875 2938 c-93 -18 -112 -28 -159 -82 -51 -60 -55 -71 -27 -86 39
-20 238 -1 247 24 2 6 -2 43 -9 82 l-12 70 -40 -8z"/>
<path d="M2245 4780 c-3 -5 -1 -10 4 -10 6 0 11 5 11 10 0 6 -2 10 -4 10 -3 0
-8 -4 -11 -10z"/>
<path d="M2720 4790 c0 -5 7 -10 15 -10 8 0 15 5 15 10 0 6 -7 10 -15 10 -8 0
-15 -4 -15 -10z"/>
<path d="M2380 4765 c0 -8 5 -15 10 -15 6 0 10 7 10 15 0 8 -4 15 -10 15 -5 0
-10 -7 -10 -15z"/>
<path d="M2440 4764 c0 -17 22 -14 28 4 2 7 -3 12 -12 12 -9 0 -16 -7 -16 -16z"/>
<path d="M4280 4400 c0 -5 5 -10 10 -10 6 0 10 5 10 10 0 6 -4 10 -10 10 -5 0
-10 -4 -10 -10z"/>
<path d="M4400 4385 c0 -14 5 -25 10 -25 6 0 10 11 10 25 0 14 -4 25 -10 25
-5 0 -10 -11 -10 -25z"/>
<path d="M4550 4399 c0 -5 5 -7 10 -4 6 3 10 8 10 11 0 2 -4 4 -10 4 -5 0 -10
-5 -10 -11z"/>
<path d="M4550 4370 c0 -5 5 -10 11 -10 5 0 7 5 4 10 -3 6 -8 10 -11 10 -2 0
-4 -4 -4 -10z"/>
<path d="M4610 4385 c0 -14 5 -25 10 -25 6 0 10 11 10 25 0 14 -4 25 -10 25
-5 0 -10 -11 -10 -25z"/>
<path d="M4524 3809 c-8 -14 14 -29 33 -22 7 3 13 11 13 19 0 17 -36 19 -46 3z"/>
<path d="M469 3753 c-10 -11 -10 -14 -1 -9 8 5 12 -2 12 -23 0 -17 5 -31 10
-31 6 0 10 18 10 40 0 43 -9 50 -31 23z"/>
<path d="M2880 3620 c0 -19 11 -26 23 -14 8 8 -3 34 -14 34 -5 0 -9 -9 -9 -20z"/>
<path d="M440 3335 c0 -8 4 -15 10 -15 5 0 7 7 4 15 -4 8 -8 15 -10 15 -2 0
-4 -7 -4 -15z"/>
<path d="M9140 3320 c0 -16 5 -30 10 -30 6 0 10 14 10 30 0 17 -4 30 -10 30
-5 0 -10 -13 -10 -30z"/>
<path d="M85 3310 c-3 -5 -1 -10 4 -10 6 0 11 5 11 10 0 6 -2 10 -4 10 -3 0
-8 -4 -11 -10z"/>
<path d="M280 3310 c0 -5 5 -10 10 -10 6 0 10 5 10 10 0 6 -4 10 -10 10 -5 0
-10 -4 -10 -10z"/>
<path d="M685 3310 c-3 -5 -1 -10 4 -10 6 0 11 5 11 10 0 6 -2 10 -4 10 -3 0
-8 -4 -11 -10z"/>
<path d="M797 3300 c-9 -11 -17 -29 -17 -40 0 -17 7 -20 45 -20 38 0 45 3 45
20 0 22 -29 60 -45 60 -6 0 -18 -9 -28 -20z m38 0 c3 -5 -1 -10 -10 -10 -9 0
-13 5 -10 10 3 6 8 10 10 10 2 0 7 -4 10 -10z"/>
<path d="M5931 3230 c0 -29 1 -32 10 -17 7 11 7 23 0 35 -9 14 -10 11 -10 -18z"/>
<path d="M390 3215 c0 -8 5 -15 10 -15 6 0 10 7 10 15 0 8 -4 15 -10 15 -5 0
-10 -7 -10 -15z"/>
<path d="M9130 2200 c0 -18 4 -29 10 -25 6 3 10 15 10 25 0 10 -4 22 -10 25
-6 4 -10 -7 -10 -25z"/>
<path d="M5748 2879 c-11 -6 -18 -21 -17 -37 1 -17 3 -20 6 -9 2 9 8 17 13 17
4 0 6 -8 3 -19 -5 -20 17 -30 50 -23 13 3 17 10 14 24 -3 12 0 21 10 25 14 5
13 8 -3 20 -21 15 -52 16 -76 2z"/>
<path d="M5920 2794 c0 -33 33 -30 38 4 3 17 -2 22 -17 22 -16 0 -21 -6 -21
-26z"/>
<path d="M6030 2785 c0 -8 5 -15 10 -15 6 0 10 7 10 15 0 8 -4 15 -10 15 -5 0
-10 -7 -10 -15z"/>
<path d="M6218 2773 c7 -3 16 -2 19 1 4 3 -2 6 -13 5 -11 0 -14 -3 -6 -6z"/>
<path d="M6337 2794 c-8 -8 1 -24 14 -24 5 0 9 7 9 15 0 15 -12 20 -23 9z"/>
<path d="M6440 2785 c0 -8 5 -15 10 -15 6 0 10 7 10 15 0 8 -4 15 -10 15 -5 0
-10 -7 -10 -15z"/>
<path d="M2380 2760 c0 -5 5 -10 10 -10 6 0 10 5 10 10 0 6 -4 10 -10 10 -5 0
-10 -4 -10 -10z"/>
<path d="M2380 2730 c0 -5 5 -10 10 -10 6 0 10 5 10 10 0 6 -4 10 -10 10 -5 0
-10 -4 -10 -10z"/>
<path d="M2450 2629 c0 -17 4 -28 10 -24 6 3 10 17 10 31 0 13 -4 24 -10 24
-5 0 -10 -14 -10 -31z"/>
<path d="M5841 2434 c0 -11 3 -14 6 -6 3 7 2 16 -1 19 -3 4 -6 -2 -5 -13z"/>
<path d="M6480 2340 c0 -5 5 -10 10 -10 6 0 10 5 10 10 0 6 -4 10 -10 10 -5 0
-10 -4 -10 -10z"/>
<path d="M6540 2331 c0 -11 4 -22 9 -25 11 -7 20 14 13 32 -7 19 -22 14 -22
-7z"/>
<path d="M9000 2215 c0 -8 5 -15 10 -15 6 0 10 7 10 15 0 8 -4 15 -10 15 -5 0
-10 -7 -10 -15z"/>
<path d="M9260 2220 c0 -5 5 -10 10 -10 6 0 10 5 10 10 0 6 -4 10 -10 10 -5 0
-10 -4 -10 -10z"/>
<path d="M9467 2223 c-10 -9 -9 -41 1 -47 5 -3 9 8 9 24 0 33 -1 33 -10 23z"/>
<path d="M4620 2135 c0 -9 6 -12 17 -8 18 7 13 -7 -15 -39 -14 -17 -13 -18 14
-17 16 0 23 3 17 6 -10 3 -10 10 -2 25 6 11 8 26 5 34 -7 19 -36 18 -36 -1z"/>
<path d="M4680 2130 c-14 -26 4 -63 28 -58 21 4 28 44 12 64 -17 19 -27 18
-40 -6z m30 -26 c0 -14 -4 -23 -10 -19 -5 3 -10 15 -10 26 0 10 5 19 10 19 6
0 10 -12 10 -26z"/>
<path d="M9330 2070 c0 -5 5 -10 10 -10 6 0 10 5 10 10 0 6 -4 10 -10 10 -5 0
-10 -4 -10 -10z"/>
<path d="M8820 1034 c0 -21 4 -33 10 -29 6 3 10 19 10 36 0 16 -4 29 -10 29
-5 0 -10 -16 -10 -36z"/>
<path d="M9390 1034 c0 -21 4 -33 10 -29 6 3 10 19 10 36 0 16 -4 29 -10 29
-5 0 -10 -16 -10 -36z"/>
<path d="M6850 1030 c-14 -26 4 -63 28 -58 27 5 27 37 0 47 -17 7 -19 10 -5
10 21 1 23 21 2 21 -8 0 -19 -9 -25 -20z m30 -36 c0 -8 -5 -12 -10 -9 -6 4 -8
11 -5 16 9 14 15 11 15 -7z"/>
<path d="M4277 653 c-2 -5 -7 -20 -10 -34 -6 -24 -4 -26 28 -27 25 -1 35 3 35
13 0 8 5 15 10 15 6 0 10 -7 10 -15 0 -10 10 -15 28 -15 19 0 23 3 13 9 -9 6
-10 11 -2 15 6 4 11 16 11 27 0 15 -6 19 -22 17 -13 -2 -28 -10 -35 -18 -11
-13 -12 -13 -13 3 0 25 -18 21 -23 -5 l-4 -23 -2 23 c-1 21 -15 30 -24 15z
m99 -35 c-16 -22 -16 -22 -16 -1 0 12 6 23 13 26 19 7 20 0 3 -25z"/>
<path d="M7620 5936 c0 -2 7 -9 15 -16 13 -11 14 -10 9 4 -5 14 -24 23 -24 12z"/>
<path d="M5137 1904 c-16 -9 -27 -18 -24 -21 6 -5 67 24 67 32 0 8 -14 5 -43
-11z"/>
<path d="M1560 1559 c-45 -13 -89 -18 -145 -17 -75 3 -83 1 -125 -27 -24 -17
-54 -48 -66 -70 -27 -49 -53 -75 -73 -75 -9 0 -49 -12 -88 -27 -71 -27 -73
-29 -89 -76 -19 -58 -56 -79 -118 -65 -27 6 -41 5 -46 -2 -4 -7 -18 -17 -31
-24 -13 -6 -25 -20 -27 -31 -2 -11 -10 -27 -17 -35 -7 -8 -15 -32 -19 -52 -4
-23 -15 -42 -27 -48 -11 -6 -47 -54 -80 -106 -65 -100 -63 -98 -159 -109 -33
-3 -105 -26 -176 -56 l-121 -51 -77 -123 -76 -122 0 -222 0 -221 863 0 862 0
53 90 c39 67 61 93 86 105 29 14 36 24 41 58 4 23 14 56 23 72 28 53 10 90
-60 126 -38 19 -38 19 -38 84 0 72 15 155 33 179 7 9 31 16 59 18 43 3 48 6
79 53 18 28 41 62 51 78 47 69 80 139 74 160 -3 12 -21 32 -41 44 -19 13 -42
34 -50 47 -15 23 -15 31 5 113 12 48 26 93 30 98 10 15 61 147 58 151 -2 1
-23 -15 -47 -36 -72 -64 -78 -64 -187 20 -33 26 -90 64 -126 84 -76 41 -109
44 -208 15z"/>
<path d="M8454 701 c-66 -88 -67 -89 -105 -84 -36 5 -38 4 -49 -33 -6 -22 -21
-111 -35 -199 -13 -88 -31 -180 -40 -204 -8 -24 -18 -62 -21 -85 -5 -39 -3
-42 35 -69 l39 -27 281 0 281 0 0 44 c0 38 35 241 45 256 2 3 -3 40 -11 83
-12 60 -12 91 -4 134 18 99 17 100 -46 114 -48 11 -142 60 -292 153 -6 4 -38
-30 -78 -83z"/>
<path d="M4760 275 c0 -2 44 -18 97 -35 68 -21 125 -31 192 -35 119 -6 108 -1
-29 16 -58 7 -136 23 -174 36 -71 23 -86 27 -86 18z"/>
<path d="M8172 20 c-11 -19 -10 -20 29 -20 l42 0 -26 20 c-14 11 -27 20 -29
20 -2 0 -9 -9 -16 -20z"/>
</g>
</svg>
